ISO-10303-21;
HEADER;
FILE_DESCRIPTION (( 'STEP AP214' ),
    '1' );
FILE_NAME ('epaper-screen-1.STEP',
    '2026-08-22T22:08:11',
    ( '' ),
    ( '' ),
    'SwSTEP 2.0',
    'SolidWorks 2019',
    '' );
FILE_SCHEMA (( 'AUTOMOTIVE_DESIGN' ));
ENDSEC;

DATA;
#1 = CARTESIAN_POINT ( 'NONE',  ( -86.00000000000000000, -57.99999999999999289, 1.000000000000000000 ) ) ;
#2 = EDGE_CURVE ( 'NONE', #512, #583, #104, .T. ) ;
#3 = DIRECTION ( 'NONE',  ( -1.239088197126291063E-16, -1.000000000000000000, 0.000000000000000000 ) ) ;
#4 = SURFACE_STYLE_USAGE ( .BOTH. , #59 ) ;
#5 = LINE ( 'NONE', #425, #197 ) ;
#6 = DIRECTION ( 'NONE',  ( 1.000000000000000000, 0.000000000000000000, -0.000000000000000000 ) ) ;
#7 = CARTESIAN_POINT ( 'NONE',  ( 85.99999999999998579, -56.00000000000000000, -2.000000000000000000 ) ) ;
#8 = ADVANCED_FACE ( 'NONE', ( #410 ), #607, .T. ) ;
#9 = ORIENTED_EDGE ( 'NONE', *, *, #575, .T. ) ;
#10 = DIRECTION ( 'NONE',  ( 0.000000000000000000, 1.000000000000000000, 0.000000000000000000 ) ) ;
#11 = DIRECTION ( 'NONE',  ( 0.000000000000000000, 1.000000000000000000, 0.000000000000000000 ) ) ;
#12 = PLANE ( 'NONE',  #570 ) ;
#13 = EDGE_CURVE ( 'NONE', #299, #159, #420, .T. ) ;
#14 = CARTESIAN_POINT ( 'NONE',  ( -86.00000000000000000, 56.00000000000000000, -2.000000000000000000 ) ) ;
#15 = CARTESIAN_POINT ( 'NONE',  ( 15.00000000000000000, -54.00000000000000000, 1.000000000000000000 ) ) ;
#16 = AXIS2_PLACEMENT_3D ( 'NONE', #211, #154, #518 ) ;
#17 = DIRECTION ( 'NONE',  ( 0.000000000000000000, 0.000000000000000000, 1.000000000000000000 ) ) ;
#18 = VECTOR ( 'NONE', #122, 1000.000000000000000 ) ;
#19 = CARTESIAN_POINT ( 'NONE',  ( -88.00000000000000000, 56.00000000000000000, -2.000000000000000000 ) ) ;
#20 = DIRECTION ( 'NONE',  ( 0.000000000000000000, 1.000000000000000000, 0.000000000000000000 ) ) ;
#21 = AXIS2_PLACEMENT_3D ( 'NONE', #388, #589, #199 ) ;
#22 = VERTEX_POINT ( 'NONE', #60 ) ;
#23 =( LENGTH_UNIT ( ) NAMED_UNIT ( * ) SI_UNIT ( .MILLI., .METRE. ) );
#24 = ORIENTED_EDGE ( 'NONE', *, *, #220, .F. ) ;
#25 = SURFACE_STYLE_USAGE ( .BOTH. , #267 ) ;
#26 = DIRECTION ( 'NONE',  ( -1.000000000000000000, 0.000000000000000000, 0.000000000000000000 ) ) ;
#27 = EDGE_CURVE ( 'NONE', #351, #95, #662, .T. ) ;
#28 = ORIENTED_EDGE ( 'NONE', *, *, #301, .T. ) ;
#29 = CARTESIAN_POINT ( 'NONE',  ( 86.00000000000000000, 56.00000000000000000, -2.000000000000000000 ) ) ;
#30 = CARTESIAN_POINT ( 'NONE',  ( -15.00000000000000000, -57.99999999999999289, 1.000000000000000000 ) ) ;
#31 = AXIS2_PLACEMENT_3D ( 'NONE', #468, #52, #523 ) ;
#32 = PRODUCT ( 'epaper-screen-1', 'epaper-screen-1', '', ( #626 ) ) ;
#33 = ORIENTED_EDGE ( 'NONE', *, *, #423, .T. ) ;
#34 = DIRECTION ( 'NONE',  ( -1.000000000000000000, 0.000000000000000000, 0.000000000000000000 ) ) ;
#35 = ORIENTED_EDGE ( 'NONE', *, *, #124, .F. ) ;
#36 = FACE_OUTER_BOUND ( 'NONE', #213, .T. ) ;
#37 = VERTEX_POINT ( 'NONE', #580 ) ;
#38 = VERTEX_POINT ( 'NONE', #116 ) ;
#39 = DIRECTION ( 'NONE',  ( 1.000000000000000000, -0.000000000000000000, -0.000000000000000000 ) ) ;
#40 = EDGE_CURVE ( 'NONE', #657, #512, #367, .T. ) ;
#41 = VERTEX_POINT ( 'NONE', #375 ) ;
#42 = ORIENTED_EDGE ( 'NONE', *, *, #455, .F. ) ;
#43 = CARTESIAN_POINT ( 'NONE',  ( 85.99999999999995737, 55.99999999999999289, -2.000000000000000000 ) ) ;
#44 = ORIENTED_EDGE ( 'NONE', *, *, #617, .F. ) ;
#45 = EDGE_CURVE ( 'NONE', #586, #48, #582, .T. ) ;
#46 = ORIENTED_EDGE ( 'NONE', *, *, #119, .T. ) ;
#47 = VECTOR ( 'NONE', #149, 1000.000000000000000 ) ;
#48 = VERTEX_POINT ( 'NONE', #272 ) ;
#49 = ADVANCED_FACE ( 'NONE', ( #320 ), #58, .T. ) ;
#50 = CARTESIAN_POINT ( 'NONE',  ( -85.99999999999998579, -56.00000000000000000, 0.000000000000000000 ) ) ;
#51 = DIRECTION ( 'NONE',  ( -1.000000000000000000, -4.034240641806529746E-17, 0.000000000000000000 ) ) ;
#52 = DIRECTION ( 'NONE',  ( 0.000000000000000000, 0.000000000000000000, 1.000000000000000000 ) ) ;
#53 = EDGE_CURVE ( 'NONE', #360, #456, #368, .T. ) ;
#54 = VECTOR ( 'NONE', #365, 1000.000000000000000 ) ;
#55 = DIRECTION ( 'NONE',  ( 0.000000000000000000, 0.000000000000000000, 1.000000000000000000 ) ) ;
#56 = DIRECTION ( 'NONE',  ( 1.000000000000000000, 0.000000000000000000, 0.000000000000000000 ) ) ;
#57 = ADVANCED_FACE ( 'NONE', ( #469 ), #475, .T. ) ;
#58 = PLANE ( 'NONE',  #160 ) ;
#59 = SURFACE_SIDE_STYLE ('',( #537 ) ) ;
#60 = CARTESIAN_POINT ( 'NONE',  ( -88.00000000000000000, -56.00000000000000000, 1.000000000000000000 ) ) ;
#61 = CARTESIAN_POINT ( 'NONE',  ( 85.99999999999998579, -55.99999999999999289, 1.000000000000000000 ) ) ;
#62 = DIRECTION ( 'NONE',  ( 1.000000000000000000, 0.000000000000000000, 0.000000000000000000 ) ) ;
#63 = VECTOR ( 'NONE', #81, 1000.000000000000000 ) ;
#64 = AXIS2_PLACEMENT_3D ( 'NONE', #43, #344, #140 ) ;
#65 = EDGE_CURVE ( 'NONE', #583, #608, #322, .T. ) ;
#66 =( NAMED_UNIT ( * ) PLANE_ANGLE_UNIT ( ) SI_UNIT ( $, .RADIAN. ) );
#67 = CARTESIAN_POINT ( 'NONE',  ( 86.00000000000000000, 56.00000000000000000, 0.000000000000000000 ) ) ;
#68 = FACE_OUTER_BOUND ( 'NONE', #489, .T. ) ;
#69 = VECTOR ( 'NONE', #643, 1000.000000000000000 ) ;
#70 = EDGE_CURVE ( 'NONE', #349, #339, #5, .T. ) ;
#71 = VECTOR ( 'NONE', #172, 1000.000000000000000 ) ;
#72 = ORIENTED_EDGE ( 'NONE', *, *, #109, .T. ) ;
#73 = DIRECTION ( 'NONE',  ( -0.000000000000000000, -0.000000000000000000, -1.000000000000000000 ) ) ;
#74 = CARTESIAN_POINT ( 'NONE',  ( 15.00000000000000000, -54.00000000000000000, 0.000000000000000000 ) ) ;
#75 = EDGE_CURVE ( 'NONE', #215, #351, #221, .T. ) ;
#76 = CARTESIAN_POINT ( 'NONE',  ( 0.000000000000000000, 0.000000000000000000, 0.000000000000000000 ) ) ;
#77 = CARTESIAN_POINT ( 'NONE',  ( -15.00000000000000000, 0.000000000000000000, 0.000000000000000000 ) ) ;
#78 = VECTOR ( 'NONE', #246, 1000.000000000000000 ) ;
#79 = PRESENTATION_STYLE_ASSIGNMENT (( #4 ) ) ;
#80 = ORIENTED_EDGE ( 'NONE', *, *, #2, .F. ) ;
#81 = DIRECTION ( 'NONE',  ( 0.000000000000000000, 0.000000000000000000, 1.000000000000000000 ) ) ;
#82 = LINE ( 'NONE', #551, #253 ) ;
#83 = EDGE_CURVE ( 'NONE', #131, #38, #472, .T. ) ;
#84 = CLOSED_SHELL ( 'NONE', ( #633, #531, #8, #411, #625, #49, #340, #57, #515, #644, #603, #664, #174, #552, #369, #244, #528, #405, #225, #249 ) ) ;
#85 = CARTESIAN_POINT ( 'NONE',  ( -86.00000000000000000, -57.99999999999999289, -2.000000000000000000 ) ) ;
#86 = VERTEX_POINT ( 'NONE', #671 ) ;
#87 = LINE ( 'NONE', #251, #201 ) ;
#88 = DIRECTION ( 'NONE',  ( -1.000000000000000000, 0.000000000000000000, 0.000000000000000000 ) ) ;
#89 = ORIENTED_EDGE ( 'NONE', *, *, #474, .F. ) ;
#90 = CARTESIAN_POINT ( 'NONE',  ( 0.000000000000000000, 0.000000000000000000, 0.000000000000000000 ) ) ;
#91 = PRODUCT_DEFINITION_FORMATION_WITH_SPECIFIED_SOURCE ( 'ANY', '', #32, .NOT_KNOWN. ) ;
#92 = EDGE_LOOP ( 'NONE', ( #650, #443, #630, #406, #198, #28, #208, #511, #232, #393, #467, #260 ) ) ;
#93 = CARTESIAN_POINT ( 'NONE',  ( -86.00000000000000000, -57.99999999999999289, -2.000000000000000000 ) ) ;
#94 = EDGE_CURVE ( 'NONE', #608, #139, #165, .T. ) ;
#95 = VERTEX_POINT ( 'NONE', #226 ) ;
#96 = FACE_OUTER_BOUND ( 'NONE', #656, .T. ) ;
#97 = EDGE_LOOP ( 'NONE', ( #143, #416, #235, #557 ) ) ;
#98 = AXIS2_PLACEMENT_3D ( 'NONE', #93, #310, #404 ) ;
#99 = ORIENTED_EDGE ( 'NONE', *, *, #480, .T. ) ;
#100 = PLANE ( 'NONE',  #319 ) ;
#101 = EDGE_LOOP ( 'NONE', ( #262, #435, #412, #417, #490, #295, #155, #151, #358, #601, #42, #611, #212, #173, #257, #343 ) ) ;
#102 = EDGE_LOOP ( 'NONE', ( #9, #35, #604, #549 ) ) ;
#103 = PLANE ( 'NONE',  #670 ) ;
#104 = LINE ( 'NONE', #85, #229 ) ;
#105 = LINE ( 'NONE', #50, #374 ) ;
#106 = VERTEX_POINT ( 'NONE', #527 ) ;
#107 = CARTESIAN_POINT ( 'NONE',  ( -86.00000000000000000, 56.00000000000000000, 1.000000000000000000 ) ) ;
#108 = DIRECTION ( 'NONE',  ( 0.000000000000000000, 0.000000000000000000, -1.000000000000000000 ) ) ;
#109 = EDGE_CURVE ( 'NONE', #95, #665, #275, .T. ) ;
#110 = CYLINDRICAL_SURFACE ( 'NONE', #634, 2.000000000000001776 ) ;
#111 = VECTOR ( 'NONE', #188, 1000.000000000000000 ) ;
#112 = AXIS2_PLACEMENT_3D ( 'NONE', #107, #666, #424 ) ;
#113 = DIRECTION ( 'NONE',  ( -1.000000000000000000, 1.239088197126291063E-16, 0.000000000000000000 ) ) ;
#114 = VECTOR ( 'NONE', #392, 1000.000000000000000 ) ;
#115 = DIRECTION ( 'NONE',  ( 1.000000000000000000, 0.000000000000000000, 0.000000000000000000 ) ) ;
#116 = CARTESIAN_POINT ( 'NONE',  ( -15.00000000000000000, -54.00000000000000000, 0.000000000000000000 ) ) ;
#117 = FACE_OUTER_BOUND ( 'NONE', #92, .T. ) ;
#118 = DIRECTION ( 'NONE',  ( -1.000000000000000000, 0.000000000000000000, 0.000000000000000000 ) ) ;
#119 = EDGE_CURVE ( 'NONE', #428, #615, #378, .T. ) ;
#120 = CARTESIAN_POINT ( 'NONE',  ( 85.99999999999995737, 58.00000000000000000, -2.000000000000000000 ) ) ;
#121 = EDGE_LOOP ( 'NONE', ( #308, #508, #314, #135 ) ) ;
#122 = DIRECTION ( 'NONE',  ( -0.000000000000000000, 0.000000000000000000, 1.000000000000000000 ) ) ;
#123 = VECTOR ( 'NONE', #17, 1000.000000000000000 ) ;
#124 = EDGE_CURVE ( 'NONE', #339, #22, #279, .T. ) ;
#125 = ORIENTED_EDGE ( 'NONE', *, *, #596, .F. ) ;
#126 =( NAMED_UNIT ( * ) SI_UNIT ( $, .STERADIAN. ) SOLID_ANGLE_UNIT ( ) );
#127 = VECTOR ( 'NONE', #108, 1000.000000000000000 ) ;
#128 = LINE ( 'NONE', #329, #114 ) ;
#129 = DIRECTION ( 'NONE',  ( 2.478176394252582127E-16, 1.000000000000000000, 0.000000000000000000 ) ) ;
#130 = EDGE_CURVE ( 'NONE', #41, #291, #430, .T. ) ;
#131 = VERTEX_POINT ( 'NONE', #520 ) ;
#132 = VECTOR ( 'NONE', #10, 1000.000000000000000 ) ;
#133 = LINE ( 'NONE', #341, #69 ) ;
#134 = AXIS2_PLACEMENT_3D ( 'NONE', #458, #658, #614 ) ;
#135 = ORIENTED_EDGE ( 'NONE', *, *, #75, .T. ) ;
#136 = ORIENTED_EDGE ( 'NONE', *, *, #40, .T. ) ;
#137 = CARTESIAN_POINT ( 'NONE',  ( 86.00000000000000000, 56.00000000000000000, 0.000000000000000000 ) ) ;
#138 = DIRECTION ( 'NONE',  ( 1.000000000000000000, -0.000000000000000000, -0.000000000000000000 ) ) ;
#139 = VERTEX_POINT ( 'NONE', #218 ) ;
#140 = DIRECTION ( 'NONE',  ( 1.000000000000000000, 0.000000000000000000, 0.000000000000000000 ) ) ;
#141 = UNCERTAINTY_MEASURE_WITH_UNIT (LENGTH_MEASURE( 1.000000000000000082E-05 ), #179, 'distance_accuracy_value', 'NONE');
#142 = EDGE_CURVE ( 'NONE', #159, #572, #82, .T. ) ;
#143 = ORIENTED_EDGE ( 'NONE', *, *, #617, .T. ) ;
#144 = CARTESIAN_POINT ( 'NONE',  ( -88.00000000000000000, 56.00000000000000000, -2.000000000000000000 ) ) ;
#145 = ORIENTED_EDGE ( 'NONE', *, *, #142, .T. ) ;
#146 = CARTESIAN_POINT ( 'NONE',  ( 85.99999999999998579, -56.00000000000000000, 0.000000000000000000 ) ) ;
#147 = CARTESIAN_POINT ( 'NONE',  ( 85.99999999999998579, -55.99999999999999289, -2.000000000000000000 ) ) ;
#148 = VERTEX_POINT ( 'NONE', #590 ) ;
#149 = DIRECTION ( 'NONE',  ( -1.239088197126290817E-16, -1.000000000000000000, 0.000000000000000000 ) ) ;
#150 = FILL_AREA_STYLE_COLOUR ( '', #334 ) ;
#151 = ORIENTED_EDGE ( 'NONE', *, *, #306, .F. ) ;
#152 = ORIENTED_EDGE ( 'NONE', *, *, #306, .T. ) ;
#153 = PRODUCT_RELATED_PRODUCT_CATEGORY ( 'part', '', ( #32 ) ) ;
#154 = DIRECTION ( 'NONE',  ( -4.034240641806528514E-17, -1.000000000000000000, 0.000000000000000000 ) ) ;
#155 = ORIENTED_EDGE ( 'NONE', *, *, #170, .F. ) ;
#156 = AXIS2_PLACEMENT_3D ( 'NONE', #14, #541, #377 ) ;
#157 = DIRECTION ( 'NONE',  ( 1.000000000000000000, 0.000000000000000000, -0.000000000000000000 ) ) ;
#158 = VECTOR ( 'NONE', #88, 1000.000000000000000 ) ;
#159 = VERTEX_POINT ( 'NONE', #542 ) ;
#160 = AXIS2_PLACEMENT_3D ( 'NONE', #473, #113, #3 ) ;
#161 = CARTESIAN_POINT ( 'NONE',  ( -86.00000000000000000, -57.99999999999999289, 1.000000000000000000 ) ) ;
#162 = DIRECTION ( 'NONE',  ( -2.478176394252581634E-16, -1.000000000000000000, 0.000000000000000000 ) ) ;
#163 = VECTOR ( 'NONE', #268, 1000.000000000000000 ) ;
#164 = FACE_OUTER_BOUND ( 'NONE', #101, .T. ) ;
#165 = LINE ( 'NONE', #524, #507 ) ;
#166 = EDGE_CURVE ( 'NONE', #148, #37, #338, .T. ) ;
#167 = LINE ( 'NONE', #576, #54 ) ;
#168 = CIRCLE ( 'NONE', #418, 2.000000000000001776 ) ;
#169 = DIRECTION ( 'NONE',  ( -0.000000000000000000, -0.000000000000000000, -1.000000000000000000 ) ) ;
#170 = EDGE_CURVE ( 'NONE', #456, #299, #598, .T. ) ;
#171 = LINE ( 'NONE', #181, #132 ) ;
#172 = DIRECTION ( 'NONE',  ( -1.000000000000000000, -4.034240641806529746E-17, -0.000000000000000000 ) ) ;
#173 = ORIENTED_EDGE ( 'NONE', *, *, #27, .F. ) ;
#174 = ADVANCED_FACE ( 'NONE', ( #289 ), #398, .F. ) ;
#175 = PRESENTATION_STYLE_ASSIGNMENT (( #25 ) ) ;
#176 = DIRECTION ( 'NONE',  ( -4.034240641806529746E-17, 1.000000000000000000, 0.000000000000000000 ) ) ;
#177 = CIRCLE ( 'NONE', #286, 2.000000000000001776 ) ;
#178 = VECTOR ( 'NONE', #303, 1000.000000000000000 ) ;
#179 =( LENGTH_UNIT ( ) NAMED_UNIT ( * ) SI_UNIT ( .MILLI., .METRE. ) );
#180 = DIRECTION ( 'NONE',  ( 1.000000000000000000, 0.000000000000000000, 0.000000000000000000 ) ) ;
#181 = CARTESIAN_POINT ( 'NONE',  ( -15.00000000000000000, -57.99999999999999289, -2.000000000000000000 ) ) ;
#182 = LINE ( 'NONE', #282, #668 ) ;
#183 = EDGE_CURVE ( 'NONE', #41, #190, #234, .T. ) ;
#184 = VECTOR ( 'NONE', #247, 1000.000000000000000 ) ;
#185 = DIRECTION ( 'NONE',  ( 0.000000000000000000, 0.000000000000000000, 1.000000000000000000 ) ) ;
#186 = PLANE ( 'NONE',  #631 ) ;
#187 = EDGE_CURVE ( 'NONE', #360, #38, #402, .T. ) ;
#188 = DIRECTION ( 'NONE',  ( -0.000000000000000000, -0.000000000000000000, -1.000000000000000000 ) ) ;
#189 = ORIENTED_EDGE ( 'NONE', *, *, #474, .T. ) ;
#190 = VERTEX_POINT ( 'NONE', #74 ) ;
#191 = LINE ( 'NONE', #447, #345 ) ;
#192 = CARTESIAN_POINT ( 'NONE',  ( 85.99999999999995737, 55.99999999999999289, 1.000000000000000000 ) ) ;
#193 = ORIENTED_EDGE ( 'NONE', *, *, #386, .F. ) ;
#194 = EDGE_CURVE ( 'NONE', #615, #567, #346, .T. ) ;
#195 = LINE ( 'NONE', #451, #178 ) ;
#196 = DIRECTION ( 'NONE',  ( 1.000000000000000000, -2.478176394252582127E-16, 0.000000000000000000 ) ) ;
#197 = VECTOR ( 'NONE', #381, 1000.000000000000000 ) ;
#198 = ORIENTED_EDGE ( 'NONE', *, *, #220, .T. ) ;
#199 = DIRECTION ( 'NONE',  ( 1.000000000000000000, 0.000000000000000000, 0.000000000000000000 ) ) ;
#200 = EDGE_CURVE ( 'NONE', #351, #86, #128, .T. ) ;
#201 = VECTOR ( 'NONE', #413, 1000.000000000000000 ) ;
#202 = ORIENTED_EDGE ( 'NONE', *, *, #65, .F. ) ;
#203 = DIRECTION ( 'NONE',  ( -1.000000000000000000, 0.000000000000000000, 0.000000000000000000 ) ) ;
#204 = ORIENTED_EDGE ( 'NONE', *, *, #94, .F. ) ;
#205 =( GEOMETRIC_REPRESENTATION_CONTEXT ( 3 ) GLOBAL_UNCERTAINTY_ASSIGNED_CONTEXT ( ( #562 ) ) GLOBAL_UNIT_ASSIGNED_CONTEXT ( ( #23, #336, #126 ) ) REPRESENTATION_CONTEXT ( 'NONE', 'WORKASPACE' ) );
#206 = ORIENTED_EDGE ( 'NONE', *, *, #45, .T. ) ;
#207 = DIRECTION ( 'NONE',  ( 0.000000000000000000, -1.000000000000000000, 0.000000000000000000 ) ) ;
#208 = ORIENTED_EDGE ( 'NONE', *, *, #596, .T. ) ;
#209 = EDGE_CURVE ( 'NONE', #665, #254, #433, .T. ) ;
#210 = ORIENTED_EDGE ( 'NONE', *, *, #259, .T. ) ;
#211 = CARTESIAN_POINT ( 'NONE',  ( -86.00000000000000000, -57.99999999999999289, -2.000000000000000000 ) ) ;
#212 = ORIENTED_EDGE ( 'NONE', *, *, #109, .F. ) ;
#213 = EDGE_LOOP ( 'NONE', ( #46, #245, #492, #210 ) ) ;
#214 = LINE ( 'NONE', #525, #342 ) ;
#215 = VERTEX_POINT ( 'NONE', #535 ) ;
#216 = AXIS2_PLACEMENT_3D ( 'NONE', #233, #432, #185 ) ;
#217 = FACE_OUTER_BOUND ( 'NONE', #121, .T. ) ;
#218 = CARTESIAN_POINT ( 'NONE',  ( -15.00000000000000000, -57.99999999999999289, -2.000000000000000000 ) ) ;
#219 = STYLED_ITEM ( 'NONE', ( #175 ), #296 ) ;
#220 = EDGE_CURVE ( 'NONE', #86, #569, #177, .T. ) ;
#221 = LINE ( 'NONE', #273, #619 ) ;
#222 = VECTOR ( 'NONE', #169, 1000.000000000000000 ) ;
#223 = CARTESIAN_POINT ( 'NONE',  ( -86.00000000000000000, 56.00000000000000000, -2.000000000000000000 ) ) ;
#224 = DIRECTION ( 'NONE',  ( 1.000000000000000000, -4.034240641806528514E-17, 0.000000000000000000 ) ) ;
#225 = ADVANCED_FACE ( 'NONE', ( #491 ), #186, .F. ) ;
#226 = CARTESIAN_POINT ( 'NONE',  ( 85.99999999999995737, 58.00000000000000000, -2.000000000000000000 ) ) ;
#227 = PLANE ( 'NONE',  #578 ) ;
#228 = ORIENTED_EDGE ( 'NONE', *, *, #386, .T. ) ;
#229 = VECTOR ( 'NONE', #315, 1000.000000000000000 ) ;
#230 = CARTESIAN_POINT ( 'NONE',  ( 87.99999999999995737, -55.99999999999999289, -2.000000000000000000 ) ) ;
#231 = CARTESIAN_POINT ( 'NONE',  ( -88.00000000000000000, 56.00000000000000000, 1.000000000000000000 ) ) ;
#232 = ORIENTED_EDGE ( 'NONE', *, *, #265, .T. ) ;
#233 = CARTESIAN_POINT ( 'NONE',  ( -85.99999999999998579, 56.00000000000000000, 0.000000000000000000 ) ) ;
#234 = LINE ( 'NONE', #293, #439 ) ;
#235 = ORIENTED_EDGE ( 'NONE', *, *, #382, .F. ) ;
#236 = AXIS2_PLACEMENT_3D ( 'NONE', #281, #449, #440 ) ;
#237 = FACE_OUTER_BOUND ( 'NONE', #479, .T. ) ;
#238 = DIRECTION ( 'NONE',  ( 0.000000000000000000, 0.000000000000000000, 1.000000000000000000 ) ) ;
#239 = EDGE_CURVE ( 'NONE', #608, #131, #182, .T. ) ;
#240 = VECTOR ( 'NONE', #11, 1000.000000000000000 ) ;
#241 = CARTESIAN_POINT ( 'NONE',  ( 85.99999999999998579, -56.00000000000000000, 0.000000000000000000 ) ) ;
#242 = ORIENTED_EDGE ( 'NONE', *, *, #239, .F. ) ;
#243 = DIRECTION ( 'NONE',  ( 0.000000000000000000, 0.000000000000000000, 1.000000000000000000 ) ) ;
#244 = ADVANCED_FACE ( 'NONE', ( #68 ), #385, .F. ) ;
#245 = ORIENTED_EDGE ( 'NONE', *, *, #194, .T. ) ;
#246 = DIRECTION ( 'NONE',  ( 0.000000000000000000, 0.000000000000000000, 1.000000000000000000 ) ) ;
#247 = DIRECTION ( 'NONE',  ( 1.000000000000000000, -4.034240641806528514E-17, 0.000000000000000000 ) ) ;
#248 = VECTOR ( 'NONE', #628, 1000.000000000000000 ) ;
#249 = ADVANCED_FACE ( 'NONE', ( #588 ), #482, .F. ) ;
#250 = ORIENTED_EDGE ( 'NONE', *, *, #270, .T. ) ;
#251 = CARTESIAN_POINT ( 'NONE',  ( 15.00000000000000000, -57.99999999999999289, -2.000000000000000000 ) ) ;
#252 = VECTOR ( 'NONE', #606, 1000.000000000000000 ) ;
#253 = VECTOR ( 'NONE', #138, 1000.000000000000000 ) ;
#254 = VERTEX_POINT ( 'NONE', #640 ) ;
#255 = LINE ( 'NONE', #352, #460 ) ;
#256 = ORIENTED_EDGE ( 'NONE', *, *, #362, .T. ) ;
#257 = ORIENTED_EDGE ( 'NONE', *, *, #75, .F. ) ;
#258 = FACE_OUTER_BOUND ( 'NONE', #366, .T. ) ;
#259 = EDGE_CURVE ( 'NONE', #48, #428, #438, .T. ) ;
#260 = ORIENTED_EDGE ( 'NONE', *, *, #382, .T. ) ;
#261 = EDGE_LOOP ( 'NONE', ( #89, #44, #414, #228, #250, #659, #206, #453 ) ) ;
#262 = ORIENTED_EDGE ( 'NONE', *, *, #166, .F. ) ;
#263 = ORIENTED_EDGE ( 'NONE', *, *, #373, .F. ) ;
#264 = EDGE_LOOP ( 'NONE', ( #516, #517, #446, #403 ) ) ;
#265 = EDGE_CURVE ( 'NONE', #22, #583, #483, .T. ) ;
#266 = CARTESIAN_POINT ( 'NONE',  ( 85.99999999999998579, -55.99999999999999289, -2.000000000000000000 ) ) ;
#267 = SURFACE_SIDE_STYLE ('',( #496 ) ) ;
#268 = DIRECTION ( 'NONE',  ( -1.239088197126290817E-16, -1.000000000000000000, 0.000000000000000000 ) ) ;
#269 = CIRCLE ( 'NONE', #31, 1.999999999999988010 ) ;
#270 = EDGE_CURVE ( 'NONE', #309, #363, #133, .T. ) ;
#271 = CARTESIAN_POINT ( 'NONE',  ( 86.00000000000000000, 56.00000000000000000, 0.000000000000000000 ) ) ;
#272 = CARTESIAN_POINT ( 'NONE',  ( 85.99999999999998579, -56.00000000000000000, 0.000000000000000000 ) ) ;
#273 = CARTESIAN_POINT ( 'NONE',  ( 87.99999999999994316, 55.99999999999999289, -2.000000000000000000 ) ) ;
#274 =( NAMED_UNIT ( * ) SI_UNIT ( $, .STERADIAN. ) SOLID_ANGLE_UNIT ( ) );
#275 = LINE ( 'NONE', #627, #71 ) ;
#276 = EDGE_CURVE ( 'NONE', #363, #159, #399, .T. ) ;
#277 = DIRECTION ( 'NONE',  ( 0.000000000000000000, 0.000000000000000000, 1.000000000000000000 ) ) ;
#278 = CARTESIAN_POINT ( 'NONE',  ( -85.99999999999998579, -56.00000000000000000, -2.000000000000000000 ) ) ;
#279 = LINE ( 'NONE', #231, #163 ) ;
#280 = ORIENTED_EDGE ( 'NONE', *, *, #637, .T. ) ;
#281 = CARTESIAN_POINT ( 'NONE',  ( 85.99999999999998579, -56.00000000000000000, 0.000000000000000000 ) ) ;
#282 = CARTESIAN_POINT ( 'NONE',  ( -15.00000000000000000, -57.99999999999999289, 1.000000000000000000 ) ) ;
#283 = ADVANCED_BREP_SHAPE_REPRESENTATION ( 'epaper-screen-1', ( #296, #290 ), #384 ) ;
#284 = DIRECTION ( 'NONE',  ( 1.000000000000000000, 1.239088197126291310E-16, -0.000000000000000000 ) ) ;
#285 = EDGE_CURVE ( 'NONE', #291, #465, #654, .T. ) ;
#286 = AXIS2_PLACEMENT_3D ( 'NONE', #192, #243, #486 ) ;
#287 = DIRECTION ( 'NONE',  ( 0.000000000000000000, 0.000000000000000000, 1.000000000000000000 ) ) ;
#288 = CARTESIAN_POINT ( 'NONE',  ( -85.99999999999998579, 56.00000000000000000, 0.000000000000000000 ) ) ;
#289 = FACE_OUTER_BOUND ( 'NONE', #431, .T. ) ;
#290 = AXIS2_PLACEMENT_3D ( 'NONE', #76, #287, #180 ) ;
#291 = VERTEX_POINT ( 'NONE', #356 ) ;
#292 = CARTESIAN_POINT ( 'NONE',  ( 87.99999999999994316, 55.99999999999999289, 1.000000000000000000 ) ) ;
#293 = CARTESIAN_POINT ( 'NONE',  ( 15.00000000000000000, -54.00000000000000000, 1.000000000000000000 ) ) ;
#294 = AXIS2_PLACEMENT_3D ( 'NONE', #147, #55, #62 ) ;
#295 = ORIENTED_EDGE ( 'NONE', *, *, #13, .F. ) ;
#296 = MANIFOLD_SOLID_BREP ( '°£®Æ-¦ùªø2', #84 ) ;
#297 = FACE_OUTER_BOUND ( 'NONE', #594, .T. ) ;
#298 = CARTESIAN_POINT ( 'NONE',  ( -86.00000000000000000, 57.99999999999999289, -2.000000000000000000 ) ) ;
#299 = VERTEX_POINT ( 'NONE', #278 ) ;
#300 = DIRECTION ( 'NONE',  ( 0.000000000000000000, 0.000000000000000000, -1.000000000000000000 ) ) ;
#301 = EDGE_CURVE ( 'NONE', #569, #254, #514, .T. ) ;
#302 = ORIENTED_EDGE ( 'NONE', *, *, #259, .F. ) ;
#303 = DIRECTION ( 'NONE',  ( -1.000000000000000000, 0.000000000000000000, 0.000000000000000000 ) ) ;
#304 = AXIS2_PLACEMENT_3D ( 'NONE', #624, #618, #371 ) ;
#305 = ORIENTED_EDGE ( 'NONE', *, *, #487, .T. ) ;
#306 = EDGE_CURVE ( 'NONE', #139, #456, #171, .T. ) ;
#307 = PLANE ( 'NONE',  #134 ) ;
#308 = ORIENTED_EDGE ( 'NONE', *, *, #200, .T. ) ;
#309 = VERTEX_POINT ( 'NONE', #587 ) ;
#310 = DIRECTION ( 'NONE',  ( -4.034240641806528514E-17, -1.000000000000000000, 0.000000000000000000 ) ) ;
#311 = DIRECTION ( 'NONE',  ( -0.000000000000000000, -0.000000000000000000, -1.000000000000000000 ) ) ;
#312 = ORIENTED_EDGE ( 'NONE', *, *, #53, .F. ) ;
#313 = MECHANICAL_DESIGN_GEOMETRIC_PRESENTATION_REPRESENTATION (  '', ( #501 ), #205 ) ;
#314 = ORIENTED_EDGE ( 'NONE', *, *, #323, .F. ) ;
#315 = DIRECTION ( 'NONE',  ( 0.000000000000000000, 0.000000000000000000, 1.000000000000000000 ) ) ;
#316 = VECTOR ( 'NONE', #577, 1000.000000000000000 ) ;
#317 = DIRECTION ( 'NONE',  ( -0.000000000000000000, -0.000000000000000000, -1.000000000000000000 ) ) ;
#318 = DIRECTION ( 'NONE',  ( -0.000000000000000000, -1.000000000000000000, -0.000000000000000000 ) ) ;
#319 = AXIS2_PLACEMENT_3D ( 'NONE', #646, #550, #642 ) ;
#320 = FACE_OUTER_BOUND ( 'NONE', #102, .T. ) ;
#321 = CARTESIAN_POINT ( 'NONE',  ( -86.00000000000000000, -56.00000000000000000, -2.000000000000000000 ) ) ;
#322 = LINE ( 'NONE', #1, #536 ) ;
#323 = EDGE_CURVE ( 'NONE', #215, #106, #485, .T. ) ;
#324 = DIRECTION ( 'NONE',  ( -0.000000000000000000, -0.000000000000000000, -1.000000000000000000 ) ) ;
#325 = CARTESIAN_POINT ( 'NONE',  ( -15.00000000000000000, -56.00000000000000000, 0.000000000000000000 ) ) ;
#326 = CARTESIAN_POINT ( 'NONE',  ( -15.00000000000000000, -56.00000000000000000, 0.000000000000000000 ) ) ;
#327 = LINE ( 'NONE', #67, #500 ) ;
#328 = VECTOR ( 'NONE', #401, 1000.000000000000000 ) ;
#329 = CARTESIAN_POINT ( 'NONE',  ( 87.99999999999995737, 55.99999999999999289, -2.000000000000000000 ) ) ;
#330 = FILL_AREA_STYLE_COLOUR ( '', #484 ) ;
#331 = EDGE_LOOP ( 'NONE', ( #563, #400, #242, #638, #152, #312 ) ) ;
#332 = CARTESIAN_POINT ( 'NONE',  ( -88.00000000000000000, 56.00000000000000000, 1.000000000000000000 ) ) ;
#333 = DIRECTION ( 'NONE',  ( 0.000000000000000000, 0.000000000000000000, 1.000000000000000000 ) ) ;
#334 = COLOUR_RGB ( '',0.7921568627450980005, 0.8196078431372548767, 0.9333333333333333481 ) ;
#335 = EDGE_CURVE ( 'NONE', #106, #86, #481, .T. ) ;
#336 =( NAMED_UNIT ( * ) PLANE_ANGLE_UNIT ( ) SI_UNIT ( $, .RADIAN. ) );
#337 =( NAMED_UNIT ( * ) PLANE_ANGLE_UNIT ( ) SI_UNIT ( $, .RADIAN. ) );
#338 = LINE ( 'NONE', #389, #184 ) ;
#339 = VERTEX_POINT ( 'NONE', #332 ) ;
#340 = ADVANCED_FACE ( 'NONE', ( #237 ), #429, .T. ) ;
#341 = CARTESIAN_POINT ( 'NONE',  ( -85.99999999999998579, 56.00000000000000000, 0.000000000000000000 ) ) ;
#342 = VECTOR ( 'NONE', #669, 1000.000000000000000 ) ;
#343 = ORIENTED_EDGE ( 'NONE', *, *, #565, .F. ) ;
#344 = DIRECTION ( 'NONE',  ( 0.000000000000000000, 0.000000000000000000, 1.000000000000000000 ) ) ;
#345 = VECTOR ( 'NONE', #34, 1000.000000000000000 ) ;
#346 = LINE ( 'NONE', #632, #18 ) ;
#347 = EDGE_CURVE ( 'NONE', #291, #148, #544, .T. ) ;
#348 = APPLICATION_CONTEXT ( 'automotive_design' ) ;
#349 = VERTEX_POINT ( 'NONE', #19 ) ;
#350 = FACE_OUTER_BOUND ( 'NONE', #261, .T. ) ;
#351 = VERTEX_POINT ( 'NONE', #584 ) ;
#352 = CARTESIAN_POINT ( 'NONE',  ( -86.00000000000000000, -57.99999999999999289, -2.000000000000000000 ) ) ;
#353 = PRESENTATION_LAYER_ASSIGNMENT (  '', '', ( #501 ) ) ;
#354 = ORIENTED_EDGE ( 'NONE', *, *, #27, .T. ) ;
#355 = DIRECTION ( 'NONE',  ( 0.000000000000000000, -1.000000000000000000, 0.000000000000000000 ) ) ;
#356 = CARTESIAN_POINT ( 'NONE',  ( 15.00000000000000000, -57.99999999999999289, 1.000000000000000000 ) ) ;
#357 = ORIENTED_EDGE ( 'NONE', *, *, #276, .F. ) ;
#358 = ORIENTED_EDGE ( 'NONE', *, *, #487, .F. ) ;
#359 = FACE_OUTER_BOUND ( 'NONE', #613, .T. ) ;
#360 = VERTEX_POINT ( 'NONE', #325 ) ;
#361 = ORIENTED_EDGE ( 'NONE', *, *, #510, .F. ) ;
#362 = EDGE_CURVE ( 'NONE', #586, #572, #327, .T. ) ;
#363 = VERTEX_POINT ( 'NONE', #288 ) ;
#364 = VECTOR ( 'NONE', #207, 1000.000000000000000 ) ;
#365 = DIRECTION ( 'NONE',  ( 1.000000000000000000, -0.000000000000000000, 0.000000000000000000 ) ) ;
#366 = EDGE_LOOP ( 'NONE', ( #204, #202, #80, #305 ) ) ;
#367 = CIRCLE ( 'NONE', #304, 2.000000000000001776 ) ;
#368 = LINE ( 'NONE', #326, #127 ) ;
#369 = ADVANCED_FACE ( 'NONE', ( #437 ), #635, .F. ) ;
#370 = CARTESIAN_POINT ( 'NONE',  ( -15.00000000000000000, -57.99999999999999289, 1.000000000000000000 ) ) ;
#371 = DIRECTION ( 'NONE',  ( 1.000000000000000000, 0.000000000000000000, 0.000000000000000000 ) ) ;
#372 =( GEOMETRIC_REPRESENTATION_CONTEXT ( 3 ) GLOBAL_UNCERTAINTY_ASSIGNED_CONTEXT ( ( #648 ) ) GLOBAL_UNIT_ASSIGNED_CONTEXT ( ( #477, #337, #581 ) ) REPRESENTATION_CONTEXT ( 'NONE', 'WORKASPACE' ) );
#373 = EDGE_CURVE ( 'NONE', #465, #106, #649, .T. ) ;
#374 = VECTOR ( 'NONE', #317, 1000.000000000000000 ) ;
#375 = CARTESIAN_POINT ( 'NONE',  ( 15.00000000000000000, -54.00000000000000000, 1.000000000000000000 ) ) ;
#376 = VECTOR ( 'NONE', #444, 1000.000000000000000 ) ;
#377 = DIRECTION ( 'NONE',  ( 1.000000000000000000, 0.000000000000000000, 0.000000000000000000 ) ) ;
#378 = LINE ( 'NONE', #7, #452 ) ;
#379 = ORIENTED_EDGE ( 'NONE', *, *, #2, .T. ) ;
#380 = APPLICATION_PROTOCOL_DEFINITION ( 'draft international standard', 'automotive_design', 1998, #348 ) ;
#381 = DIRECTION ( 'NONE',  ( 0.000000000000000000, 0.000000000000000000, 1.000000000000000000 ) ) ;
#382 = EDGE_CURVE ( 'NONE', #131, #41, #499, .T. ) ;
#383 = ORIENTED_EDGE ( 'NONE', *, *, #323, .T. ) ;
#384 =( GEOMETRIC_REPRESENTATION_CONTEXT ( 3 ) GLOBAL_UNCERTAINTY_ASSIGNED_CONTEXT ( ( #141 ) ) GLOBAL_UNIT_ASSIGNED_CONTEXT ( ( #179, #66, #274 ) ) REPRESENTATION_CONTEXT ( 'NONE', 'WORKASPACE' ) );
#385 = PLANE ( 'NONE',  #236 ) ;
#386 = EDGE_CURVE ( 'NONE', #360, #309, #191, .T. ) ;
#387 = AXIS2_PLACEMENT_3D ( 'NONE', #470, #176, #51 ) ;
#388 = CARTESIAN_POINT ( 'NONE',  ( 85.99999999999998579, -55.99999999999999289, 1.000000000000000000 ) ) ;
#389 = CARTESIAN_POINT ( 'NONE',  ( -86.00000000000000000, -57.99999999999999289, -2.000000000000000000 ) ) ;
#390 = CARTESIAN_POINT ( 'NONE',  ( 87.99999999999994316, 55.99999999999999289, -2.000000000000000000 ) ) ;
#391 = CARTESIAN_POINT ( 'NONE',  ( -86.00000000000000000, 57.99999999999999289, 1.000000000000000000 ) ) ;
#392 = DIRECTION ( 'NONE',  ( 0.000000000000000000, 0.000000000000000000, 1.000000000000000000 ) ) ;
#393 = ORIENTED_EDGE ( 'NONE', *, *, #65, .T. ) ;
#394 = MECHANICAL_DESIGN_GEOMETRIC_PRESENTATION_REPRESENTATION (  '', ( #219 ), #372 ) ;
#395 = PRODUCT_DEFINITION ( 'UNKNOWN', '', #91, #556 ) ;
#396 = ORIENTED_EDGE ( 'NONE', *, *, #209, .T. ) ;
#397 = CARTESIAN_POINT ( 'NONE',  ( 85.99999999999998579, -58.00000000000000000, 1.000000000000000000 ) ) ;
#398 = PLANE ( 'NONE',  #503 ) ;
#399 = LINE ( 'NONE', #488, #538 ) ;
#400 = ORIENTED_EDGE ( 'NONE', *, *, #83, .F. ) ;
#401 = DIRECTION ( 'NONE',  ( -2.478176394252581634E-16, -1.000000000000000000, 0.000000000000000000 ) ) ;
#402 = LINE ( 'NONE', #77, #240 ) ;
#403 = ORIENTED_EDGE ( 'NONE', *, *, #285, .F. ) ;
#404 = DIRECTION ( 'NONE',  ( 1.000000000000000000, -4.034240641806528514E-17, 0.000000000000000000 ) ) ;
#405 = ADVANCED_FACE ( 'NONE', ( #297 ), #100, .F. ) ;
#406 = ORIENTED_EDGE ( 'NONE', *, *, #335, .T. ) ;
#407 = LINE ( 'NONE', #29, #328 ) ;
#408 = AXIS2_PLACEMENT_3D ( 'NONE', #15, #478, #238 ) ;
#409 = CARTESIAN_POINT ( 'NONE',  ( -86.00000000000000000, -57.99999999999999289, 1.000000000000000000 ) ) ;
#410 = FACE_OUTER_BOUND ( 'NONE', #461, .T. ) ;
#411 = ADVANCED_FACE ( 'NONE', ( #258 ), #653, .T. ) ;
#412 = ORIENTED_EDGE ( 'NONE', *, *, #119, .F. ) ;
#413 = DIRECTION ( 'NONE',  ( -0.000000000000000000, -1.000000000000000000, -0.000000000000000000 ) ) ;
#414 = ORIENTED_EDGE ( 'NONE', *, *, #187, .F. ) ;
#415 = ORIENTED_EDGE ( 'NONE', *, *, #276, .T. ) ;
#416 = ORIENTED_EDGE ( 'NONE', *, *, #183, .F. ) ;
#417 = ORIENTED_EDGE ( 'NONE', *, *, #480, .F. ) ;
#418 = AXIS2_PLACEMENT_3D ( 'NONE', #223, #620, #56 ) ;
#419 = AXIS2_PLACEMENT_3D ( 'NONE', #90, #300, #203 ) ;
#420 = LINE ( 'NONE', #521, #316 ) ;
#421 = VECTOR ( 'NONE', #162, 1000.000000000000000 ) ;
#422 = DIRECTION ( 'NONE',  ( -1.239088197126291063E-16, 1.000000000000000000, -0.000000000000000000 ) ) ;
#423 = EDGE_CURVE ( 'NONE', #615, #148, #87, .T. ) ;
#424 = DIRECTION ( 'NONE',  ( 1.000000000000000000, 0.000000000000000000, 0.000000000000000000 ) ) ;
#425 = CARTESIAN_POINT ( 'NONE',  ( -88.00000000000000000, 56.00000000000000000, -2.000000000000000000 ) ) ;
#426 = CARTESIAN_POINT ( 'NONE',  ( 86.00000000000000000, 56.00000000000000000, 0.000000000000000000 ) ) ;
#427 = CARTESIAN_POINT ( 'NONE',  ( -86.00000000000000000, 57.99999999999999289, -2.000000000000000000 ) ) ;
#428 = VERTEX_POINT ( 'NONE', #454 ) ;
#429 = CYLINDRICAL_SURFACE ( 'NONE', #156, 2.000000000000001776 ) ;
#430 = LINE ( 'NONE', #585, #540 ) ;
#431 = EDGE_LOOP ( 'NONE', ( #99, #302, #660, #256 ) ) ;
#432 = DIRECTION ( 'NONE',  ( -1.000000000000000000, 0.000000000000000000, 0.000000000000000000 ) ) ;
#433 = LINE ( 'NONE', #298, #532 ) ;
#434 = CARTESIAN_POINT ( 'NONE',  ( -88.00000000000000000, -56.00000000000000000, -2.000000000000000000 ) ) ;
#435 = ORIENTED_EDGE ( 'NONE', *, *, #423, .F. ) ;
#436 = VECTOR ( 'NONE', #39, 1000.000000000000000 ) ;
#437 = FACE_OUTER_BOUND ( 'NONE', #663, .T. ) ;
#438 = LINE ( 'NONE', #241, #111 ) ;
#439 = VECTOR ( 'NONE', #545, 1000.000000000000000 ) ;
#440 = DIRECTION ( 'NONE',  ( 0.000000000000000000, -0.000000000000000000, -1.000000000000000000 ) ) ;
#441 = EDGE_CURVE ( 'NONE', #48, #567, #195, .T. ) ;
#442 = ORIENTED_EDGE ( 'NONE', *, *, #53, .T. ) ;
#443 = ORIENTED_EDGE ( 'NONE', *, *, #285, .T. ) ;
#444 = DIRECTION ( 'NONE',  ( 1.000000000000000000, -0.000000000000000000, -0.000000000000000000 ) ) ;
#445 = DIRECTION ( 'NONE',  ( 1.000000000000000000, 0.000000000000000000, 0.000000000000000000 ) ) ;
#446 = ORIENTED_EDGE ( 'NONE', *, *, #510, .T. ) ;
#447 = CARTESIAN_POINT ( 'NONE',  ( 85.99999999999998579, -56.00000000000000000, 0.000000000000000000 ) ) ;
#448 = VECTOR ( 'NONE', #639, 1000.000000000000000 ) ;
#449 = DIRECTION ( 'NONE',  ( 0.000000000000000000, -1.000000000000000000, 0.000000000000000000 ) ) ;
#450 = ORIENTED_EDGE ( 'NONE', *, *, #183, .T. ) ;
#451 = CARTESIAN_POINT ( 'NONE',  ( 85.99999999999998579, -56.00000000000000000, 0.000000000000000000 ) ) ;
#452 = VECTOR ( 'NONE', #118, 1000.000000000000000 ) ;
#453 = ORIENTED_EDGE ( 'NONE', *, *, #441, .T. ) ;
#454 = CARTESIAN_POINT ( 'NONE',  ( 85.99999999999998579, -55.99999999999999289, -2.000000000000000000 ) ) ;
#455 = EDGE_CURVE ( 'NONE', #349, #657, #494, .T. ) ;
#456 = VERTEX_POINT ( 'NONE', #513 ) ;
#457 = EDGE_LOOP ( 'NONE', ( #379, #459, #548, #136 ) ) ;
#458 = CARTESIAN_POINT ( 'NONE',  ( 86.00000000000000000, 56.00000000000000000, 0.000000000000000000 ) ) ;
#459 = ORIENTED_EDGE ( 'NONE', *, *, #265, .F. ) ;
#460 = VECTOR ( 'NONE', #566, 1000.000000000000000 ) ;
#461 = EDGE_LOOP ( 'NONE', ( #383, #263, #361, #667 ) ) ;
#462 = FACE_OUTER_BOUND ( 'NONE', #264, .T. ) ;
#463 = FILL_AREA_STYLE ('',( #150 ) ) ;
#464 = ORIENTED_EDGE ( 'NONE', *, *, #270, .F. ) ;
#465 = VERTEX_POINT ( 'NONE', #397 ) ;
#466 = CARTESIAN_POINT ( 'NONE',  ( 86.00000000000000000, 56.00000000000000000, -2.000000000000000000 ) ) ;
#467 = ORIENTED_EDGE ( 'NONE', *, *, #239, .T. ) ;
#468 = CARTESIAN_POINT ( 'NONE',  ( 85.99999999999998579, -55.99999999999999289, -2.000000000000000000 ) ) ;
#469 = FACE_OUTER_BOUND ( 'NONE', #504, .T. ) ;
#470 = CARTESIAN_POINT ( 'NONE',  ( -86.00000000000000000, 57.99999999999999289, -2.000000000000000000 ) ) ;
#471 = PRESENTATION_LAYER_ASSIGNMENT (  '', '', ( #219 ) ) ;
#472 = LINE ( 'NONE', #621, #222 ) ;
#473 = CARTESIAN_POINT ( 'NONE',  ( -88.00000000000000000, 56.00000000000000000, -2.000000000000000000 ) ) ;
#474 = EDGE_CURVE ( 'NONE', #190, #567, #609, .T. ) ;
#475 = PLANE ( 'NONE',  #387 ) ;
#476 = ORIENTED_EDGE ( 'NONE', *, *, #497, .F. ) ;
#477 =( LENGTH_UNIT ( ) NAMED_UNIT ( * ) SI_UNIT ( .MILLI., .METRE. ) );
#478 = DIRECTION ( 'NONE',  ( 0.000000000000000000, 1.000000000000000000, -0.000000000000000000 ) ) ;
#479 = EDGE_LOOP ( 'NONE', ( #539, #125, #493, #641 ) ) ;
#480 = EDGE_CURVE ( 'NONE', #572, #428, #407, .T. ) ;
#481 = LINE ( 'NONE', #292, #448 ) ;
#482 = PLANE ( 'NONE',  #408 ) ;
#483 = CIRCLE ( 'NONE', #506, 2.000000000000001776 ) ;
#484 = COLOUR_RGB ( '',0.7921568627450980005, 0.8196078431372548767, 0.9333333333333333481 ) ;
#485 = LINE ( 'NONE', #230, #63 ) ;
#486 = DIRECTION ( 'NONE',  ( -1.000000000000000000, 0.000000000000000000, 0.000000000000000000 ) ) ;
#487 = EDGE_CURVE ( 'NONE', #512, #139, #255, .T. ) ;
#488 = CARTESIAN_POINT ( 'NONE',  ( -85.99999999999998579, 56.00000000000000000, 0.000000000000000000 ) ) ;
#489 = EDGE_LOOP ( 'NONE', ( #193, #442, #568, #498 ) ) ;
#490 = ORIENTED_EDGE ( 'NONE', *, *, #142, .F. ) ;
#491 = FACE_OUTER_BOUND ( 'NONE', #331, .T. ) ;
#492 = ORIENTED_EDGE ( 'NONE', *, *, #441, .F. ) ;
#493 = ORIENTED_EDGE ( 'NONE', *, *, #209, .F. ) ;
#494 = LINE ( 'NONE', #144, #47 ) ;
#495 = DIRECTION ( 'NONE',  ( 0.000000000000000000, 0.000000000000000000, 1.000000000000000000 ) ) ;
#496 = SURFACE_STYLE_FILL_AREA ( #463 ) ;
#497 = EDGE_CURVE ( 'NONE', #363, #586, #597, .T. ) ;
#498 = ORIENTED_EDGE ( 'NONE', *, *, #637, .F. ) ;
#499 = LINE ( 'NONE', #509, #376 ) ;
#500 = VECTOR ( 'NONE', #73, 1000.000000000000000 ) ;
#501 = STYLED_ITEM ( 'NONE', ( #79 ), #283 ) ;
#502 = PRODUCT_DEFINITION_SHAPE ( 'NONE', 'NONE',  #395 ) ;
#503 = AXIS2_PLACEMENT_3D ( 'NONE', #547, #196, #129 ) ;
#504 = EDGE_LOOP ( 'NONE', ( #396, #599, #610, #72 ) ) ;
#505 = CYLINDRICAL_SURFACE ( 'NONE', #64, 2.000000000000001776 ) ;
#506 = AXIS2_PLACEMENT_3D ( 'NONE', #647, #593, #445 ) ;
#507 = VECTOR ( 'NONE', #324, 1000.000000000000000 ) ;
#508 = ORIENTED_EDGE ( 'NONE', *, *, #335, .F. ) ;
#509 = CARTESIAN_POINT ( 'NONE',  ( 15.00000000000000000, -54.00000000000000000, 1.000000000000000000 ) ) ;
#510 = EDGE_CURVE ( 'NONE', #37, #465, #558, .T. ) ;
#511 = ORIENTED_EDGE ( 'NONE', *, *, #124, .T. ) ;
#512 = VERTEX_POINT ( 'NONE', #600 ) ;
#513 = CARTESIAN_POINT ( 'NONE',  ( -15.00000000000000000, -56.00000000000000000, -2.000000000000000000 ) ) ;
#514 = LINE ( 'NONE', #391, #623 ) ;
#515 = ADVANCED_FACE ( 'NONE', ( #359 ), #505, .T. ) ;
#516 = ORIENTED_EDGE ( 'NONE', *, *, #347, .T. ) ;
#517 = ORIENTED_EDGE ( 'NONE', *, *, #166, .T. ) ;
#518 = DIRECTION ( 'NONE',  ( 1.000000000000000000, -4.034240641806528514E-17, 0.000000000000000000 ) ) ;
#519 = ORIENTED_EDGE ( 'NONE', *, *, #362, .F. ) ;
#520 = CARTESIAN_POINT ( 'NONE',  ( -15.00000000000000000, -54.00000000000000000, 1.000000000000000000 ) ) ;
#521 = CARTESIAN_POINT ( 'NONE',  ( -85.99999999999998579, 56.00000000000000000, -2.000000000000000000 ) ) ;
#522 = AXIS2_PLACEMENT_3D ( 'NONE', #146, #355, #561 ) ;
#523 = DIRECTION ( 'NONE',  ( 1.000000000000000000, 0.000000000000000000, 0.000000000000000000 ) ) ;
#524 = CARTESIAN_POINT ( 'NONE',  ( -15.00000000000000000, -57.99999999999999289, 1.000000000000000000 ) ) ;
#525 = CARTESIAN_POINT ( 'NONE',  ( -88.00000000000000000, -56.00000000000000000, -2.000000000000000000 ) ) ;
#526 = APPLICATION_PROTOCOL_DEFINITION ( 'draft international standard', 'automotive_design', 1998, #553 ) ;
#527 = CARTESIAN_POINT ( 'NONE',  ( 87.99999999999995737, -55.99999999999999289, 1.000000000000000000 ) ) ;
#528 = ADVANCED_FACE ( 'NONE', ( #350 ), #555, .T. ) ;
#529 = DIRECTION ( 'NONE',  ( -1.239088197126291310E-16, 1.000000000000000000, 0.000000000000000000 ) ) ;
#530 = DIRECTION ( 'NONE',  ( 0.000000000000000000, 0.000000000000000000, 1.000000000000000000 ) ) ;
#531 = ADVANCED_FACE ( 'NONE', ( #36 ), #605, .F. ) ;
#532 = VECTOR ( 'NONE', #495, 1000.000000000000000 ) ;
#533 = SHAPE_DEFINITION_REPRESENTATION ( #502, #283 ) ;
#534 = DIRECTION ( 'NONE',  ( -1.000000000000000000, -4.034240641806529746E-17, -0.000000000000000000 ) ) ;
#535 = CARTESIAN_POINT ( 'NONE',  ( 87.99999999999995737, -55.99999999999999289, -2.000000000000000000 ) ) ;
#536 = VECTOR ( 'NONE', #224, 1000.000000000000000 ) ;
#537 = SURFACE_STYLE_FILL_AREA ( #591 ) ;
#538 = VECTOR ( 'NONE', #311, 1000.000000000000000 ) ;
#539 = ORIENTED_EDGE ( 'NONE', *, *, #70, .T. ) ;
#540 = VECTOR ( 'NONE', #318, 1000.000000000000000 ) ;
#541 = DIRECTION ( 'NONE',  ( 0.000000000000000000, 0.000000000000000000, 1.000000000000000000 ) ) ;
#542 = CARTESIAN_POINT ( 'NONE',  ( -85.99999999999998579, 56.00000000000000000, -2.000000000000000000 ) ) ;
#543 = LINE ( 'NONE', #120, #123 ) ;
#544 = LINE ( 'NONE', #592, #248 ) ;
#545 = DIRECTION ( 'NONE',  ( -0.000000000000000000, -0.000000000000000000, -1.000000000000000000 ) ) ;
#546 = CIRCLE ( 'NONE', #112, 2.000000000000001776 ) ;
#547 = CARTESIAN_POINT ( 'NONE',  ( 86.00000000000000000, 56.00000000000000000, 0.000000000000000000 ) ) ;
#548 = ORIENTED_EDGE ( 'NONE', *, *, #575, .F. ) ;
#549 = ORIENTED_EDGE ( 'NONE', *, *, #455, .T. ) ;
#550 = DIRECTION ( 'NONE',  ( 1.000000000000000000, 0.000000000000000000, 0.000000000000000000 ) ) ;
#551 = CARTESIAN_POINT ( 'NONE',  ( 86.00000000000000000, 56.00000000000000000, -2.000000000000000000 ) ) ;
#552 = ADVANCED_FACE ( 'NONE', ( #96 ), #307, .F. ) ;
#553 = APPLICATION_CONTEXT ( 'automotive_design' ) ;
#554 = ORIENTED_EDGE ( 'NONE', *, *, #194, .F. ) ;
#555 = PLANE ( 'NONE',  #419 ) ;
#556 = PRODUCT_DEFINITION_CONTEXT ( 'detailed design', #348, 'design' ) ;
#557 = ORIENTED_EDGE ( 'NONE', *, *, #83, .T. ) ;
#558 = LINE ( 'NONE', #651, #78 ) ;
#559 = EDGE_CURVE ( 'NONE', #665, #349, #168, .T. ) ;
#560 = ORIENTED_EDGE ( 'NONE', *, *, #347, .F. ) ;
#561 = DIRECTION ( 'NONE',  ( 0.000000000000000000, -0.000000000000000000, -1.000000000000000000 ) ) ;
#562 = UNCERTAINTY_MEASURE_WITH_UNIT (LENGTH_MEASURE( 1.000000000000000082E-05 ), #23, 'distance_accuracy_value', 'NONE');
#563 = ORIENTED_EDGE ( 'NONE', *, *, #187, .T. ) ;
#564 = ORIENTED_EDGE ( 'NONE', *, *, #13, .T. ) ;
#565 = EDGE_CURVE ( 'NONE', #37, #215, #269, .T. ) ;
#566 = DIRECTION ( 'NONE',  ( 1.000000000000000000, -4.034240641806528514E-17, 0.000000000000000000 ) ) ;
#567 = VERTEX_POINT ( 'NONE', #616 ) ;
#568 = ORIENTED_EDGE ( 'NONE', *, *, #170, .T. ) ;
#569 = VERTEX_POINT ( 'NONE', #573 ) ;
#570 = AXIS2_PLACEMENT_3D ( 'NONE', #390, #284, #529 ) ;
#571 = FACE_OUTER_BOUND ( 'NONE', #457, .T. ) ;
#572 = VERTEX_POINT ( 'NONE', #466 ) ;
#573 = CARTESIAN_POINT ( 'NONE',  ( 85.99999999999995737, 58.00000000000000000, 1.000000000000000000 ) ) ;
#574 = DIRECTION ( 'NONE',  ( -1.000000000000000000, 0.000000000000000000, 0.000000000000000000 ) ) ;
#575 = EDGE_CURVE ( 'NONE', #657, #22, #214, .T. ) ;
#576 = CARTESIAN_POINT ( 'NONE',  ( 0.000000000000000000, -54.00000000000000000, 0.000000000000000000 ) ) ;
#577 = DIRECTION ( 'NONE',  ( -0.000000000000000000, 1.000000000000000000, -0.000000000000000000 ) ) ;
#578 = AXIS2_PLACEMENT_3D ( 'NONE', #61, #277, #6 ) ;
#579 = DIRECTION ( 'NONE',  ( 0.000000000000000000, 0.000000000000000000, 1.000000000000000000 ) ) ;
#580 = CARTESIAN_POINT ( 'NONE',  ( 85.99999999999998579, -58.00000000000000000, -2.000000000000000000 ) ) ;
#581 =( NAMED_UNIT ( * ) SI_UNIT ( $, .STERADIAN. ) SOLID_ANGLE_UNIT ( ) );
#582 = LINE ( 'NONE', #426, #421 ) ;
#583 = VERTEX_POINT ( 'NONE', #161 ) ;
#584 = CARTESIAN_POINT ( 'NONE',  ( 87.99999999999995737, 55.99999999999999289, -2.000000000000000000 ) ) ;
#585 = CARTESIAN_POINT ( 'NONE',  ( 15.00000000000000000, -57.99999999999999289, 1.000000000000000000 ) ) ;
#586 = VERTEX_POINT ( 'NONE', #271 ) ;
#587 = CARTESIAN_POINT ( 'NONE',  ( -85.99999999999998579, -56.00000000000000000, 0.000000000000000000 ) ) ;
#588 = FACE_OUTER_BOUND ( 'NONE', #97, .T. ) ;
#589 = DIRECTION ( 'NONE',  ( 0.000000000000000000, 0.000000000000000000, 1.000000000000000000 ) ) ;
#590 = CARTESIAN_POINT ( 'NONE',  ( 15.00000000000000000, -57.99999999999999289, -2.000000000000000000 ) ) ;
#591 = FILL_AREA_STYLE ('',( #330 ) ) ;
#592 = CARTESIAN_POINT ( 'NONE',  ( 15.00000000000000000, -57.99999999999999289, 1.000000000000000000 ) ) ;
#593 = DIRECTION ( 'NONE',  ( 0.000000000000000000, 0.000000000000000000, 1.000000000000000000 ) ) ;
#594 = EDGE_LOOP ( 'NONE', ( #33, #560, #595, #450, #189, #554 ) ) ;
#595 = ORIENTED_EDGE ( 'NONE', *, *, #130, .F. ) ;
#596 = EDGE_CURVE ( 'NONE', #254, #339, #546, .T. ) ;
#597 = LINE ( 'NONE', #137, #436 ) ;
#598 = LINE ( 'NONE', #636, #158 ) ;
#599 = ORIENTED_EDGE ( 'NONE', *, *, #301, .F. ) ;
#600 = CARTESIAN_POINT ( 'NONE',  ( -86.00000000000000000, -57.99999999999999289, -2.000000000000000000 ) ) ;
#601 = ORIENTED_EDGE ( 'NONE', *, *, #40, .F. ) ;
#602 = CARTESIAN_POINT ( 'NONE',  ( 15.00000000000000000, 0.000000000000000000, 0.000000000000000000 ) ) ;
#603 = ADVANCED_FACE ( 'NONE', ( #164 ), #103, .F. ) ;
#604 = ORIENTED_EDGE ( 'NONE', *, *, #70, .F. ) ;
#605 = PLANE ( 'NONE',  #522 ) ;
#606 = DIRECTION ( 'NONE',  ( 1.000000000000000000, -4.034240641806528514E-17, 0.000000000000000000 ) ) ;
#607 = CYLINDRICAL_SURFACE ( 'NONE', #294, 1.999999999999988010 ) ;
#608 = VERTEX_POINT ( 'NONE', #370 ) ;
#609 = LINE ( 'NONE', #602, #364 ) ;
#610 = ORIENTED_EDGE ( 'NONE', *, *, #655, .F. ) ;
#611 = ORIENTED_EDGE ( 'NONE', *, *, #559, .F. ) ;
#612 = CARTESIAN_POINT ( 'NONE',  ( 15.00000000000000000, -56.00000000000000000, -2.000000000000000000 ) ) ;
#613 = EDGE_LOOP ( 'NONE', ( #652, #24, #645, #354 ) ) ;
#614 = DIRECTION ( 'NONE',  ( 0.000000000000000000, 0.000000000000000000, 1.000000000000000000 ) ) ;
#615 = VERTEX_POINT ( 'NONE', #612 ) ;
#616 = CARTESIAN_POINT ( 'NONE',  ( 15.00000000000000000, -56.00000000000000000, 0.000000000000000000 ) ) ;
#617 = EDGE_CURVE ( 'NONE', #38, #190, #167, .T. ) ;
#618 = DIRECTION ( 'NONE',  ( 0.000000000000000000, 0.000000000000000000, 1.000000000000000000 ) ) ;
#619 = VECTOR ( 'NONE', #422, 1000.000000000000000 ) ;
#620 = DIRECTION ( 'NONE',  ( 0.000000000000000000, 0.000000000000000000, 1.000000000000000000 ) ) ;
#621 = CARTESIAN_POINT ( 'NONE',  ( -15.00000000000000000, -54.00000000000000000, 1.000000000000000000 ) ) ;
#622 = DIRECTION ( 'NONE',  ( 0.000000000000000000, 0.000000000000000000, 1.000000000000000000 ) ) ;
#623 = VECTOR ( 'NONE', #534, 1000.000000000000000 ) ;
#624 = CARTESIAN_POINT ( 'NONE',  ( -86.00000000000000000, -56.00000000000000000, -2.000000000000000000 ) ) ;
#625 = ADVANCED_FACE ( 'NONE', ( #571 ), #110, .T. ) ;
#626 = PRODUCT_CONTEXT ( 'NONE', #553, 'mechanical' ) ;
#627 = CARTESIAN_POINT ( 'NONE',  ( -86.00000000000000000, 57.99999999999999289, -2.000000000000000000 ) ) ;
#628 = DIRECTION ( 'NONE',  ( -0.000000000000000000, -0.000000000000000000, -1.000000000000000000 ) ) ;
#629 = CARTESIAN_POINT ( 'NONE',  ( 85.99999999999995737, 55.99999999999999289, -2.000000000000000000 ) ) ;
#630 = ORIENTED_EDGE ( 'NONE', *, *, #373, .T. ) ;
#631 = AXIS2_PLACEMENT_3D ( 'NONE', #30, #26, #333 ) ;
#632 = CARTESIAN_POINT ( 'NONE',  ( 15.00000000000000000, -56.00000000000000000, 0.000000000000000000 ) ) ;
#633 = ADVANCED_FACE ( 'NONE', ( #462 ), #661, .T. ) ;
#634 = AXIS2_PLACEMENT_3D ( 'NONE', #321, #579, #115 ) ;
#635 = PLANE ( 'NONE',  #216 ) ;
#636 = CARTESIAN_POINT ( 'NONE',  ( 85.99999999999998579, -56.00000000000000000, -2.000000000000000000 ) ) ;
#637 = EDGE_CURVE ( 'NONE', #309, #299, #105, .T. ) ;
#638 = ORIENTED_EDGE ( 'NONE', *, *, #94, .T. ) ;
#639 = DIRECTION ( 'NONE',  ( -1.239088197126291063E-16, 1.000000000000000000, -0.000000000000000000 ) ) ;
#640 = CARTESIAN_POINT ( 'NONE',  ( -86.00000000000000000, 57.99999999999999289, 1.000000000000000000 ) ) ;
#641 = ORIENTED_EDGE ( 'NONE', *, *, #559, .T. ) ;
#642 = DIRECTION ( 'NONE',  ( 0.000000000000000000, 0.000000000000000000, -1.000000000000000000 ) ) ;
#643 = DIRECTION ( 'NONE',  ( -0.000000000000000000, 1.000000000000000000, -0.000000000000000000 ) ) ;
#644 = ADVANCED_FACE ( 'NONE', ( #217 ), #12, .T. ) ;
#645 = ORIENTED_EDGE ( 'NONE', *, *, #200, .F. ) ;
#646 = CARTESIAN_POINT ( 'NONE',  ( 15.00000000000000000, -57.99999999999999289, 1.000000000000000000 ) ) ;
#647 = CARTESIAN_POINT ( 'NONE',  ( -86.00000000000000000, -56.00000000000000000, 1.000000000000000000 ) ) ;
#648 = UNCERTAINTY_MEASURE_WITH_UNIT (LENGTH_MEASURE( 1.000000000000000082E-05 ), #477, 'distance_accuracy_value', 'NONE');
#649 = CIRCLE ( 'NONE', #21, 1.999999999999988010 ) ;
#650 = ORIENTED_EDGE ( 'NONE', *, *, #130, .T. ) ;
#651 = CARTESIAN_POINT ( 'NONE',  ( 85.99999999999998579, -58.00000000000000000, -2.000000000000000000 ) ) ;
#652 = ORIENTED_EDGE ( 'NONE', *, *, #655, .T. ) ;
#653 = PLANE ( 'NONE',  #98 ) ;
#654 = LINE ( 'NONE', #409, #252 ) ;
#655 = EDGE_CURVE ( 'NONE', #95, #569, #543, .T. ) ;
#656 = EDGE_LOOP ( 'NONE', ( #145, #519, #476, #415 ) ) ;
#657 = VERTEX_POINT ( 'NONE', #434 ) ;
#658 = DIRECTION ( 'NONE',  ( 0.000000000000000000, 1.000000000000000000, -0.000000000000000000 ) ) ;
#659 = ORIENTED_EDGE ( 'NONE', *, *, #497, .T. ) ;
#660 = ORIENTED_EDGE ( 'NONE', *, *, #45, .F. ) ;
#661 = PLANE ( 'NONE',  #16 ) ;
#662 = CIRCLE ( 'NONE', #672, 2.000000000000001776 ) ;
#663 = EDGE_LOOP ( 'NONE', ( #564, #357, #464, #280 ) ) ;
#664 = ADVANCED_FACE ( 'NONE', ( #117 ), #227, .T. ) ;
#665 = VERTEX_POINT ( 'NONE', #427 ) ;
#666 = DIRECTION ( 'NONE',  ( 0.000000000000000000, 0.000000000000000000, 1.000000000000000000 ) ) ;
#667 = ORIENTED_EDGE ( 'NONE', *, *, #565, .T. ) ;
#668 = VECTOR ( 'NONE', #20, 1000.000000000000000 ) ;
#669 = DIRECTION ( 'NONE',  ( 0.000000000000000000, 0.000000000000000000, 1.000000000000000000 ) ) ;
#670 = AXIS2_PLACEMENT_3D ( 'NONE', #266, #622, #157 ) ;
#671 = CARTESIAN_POINT ( 'NONE',  ( 87.99999999999995737, 55.99999999999999289, 1.000000000000000000 ) ) ;
#672 = AXIS2_PLACEMENT_3D ( 'NONE', #629, #530, #574 ) ;
ENDSEC;
END-ISO-10303-21;
