ISO-10303-21;
HEADER;
FILE_DESCRIPTION (( 'STEP AP214' ),
    '1' );
FILE_NAME ('epaper-screen-5.STEP',
    '2026-08-22T22:06:39',
    ( '' ),
    ( '' ),
    'SwSTEP 2.0',
    'SolidWorks 2019',
    '' );
FILE_SCHEMA (( 'AUTOMOTIVE_DESIGN' ));
ENDSEC;

DATA;
#1 = DIRECTION ( 'NONE',  ( 1.000000000000000000, -0.000000000000000000, 1.224646799147353207E-16 ) ) ;
#2 = VECTOR ( 'NONE', #52, 1000.000000000000000 ) ;
#3 = CARTESIAN_POINT ( 'NONE',  ( 0.9736582135171053531, 5.262643375043204230, 4.904545952820934751 ) ) ;
#4 = UNCERTAINTY_MEASURE_WITH_UNIT (LENGTH_MEASURE( 1.000000000000000082E-05 ), #437, 'distance_accuracy_value', 'NONE');
#5 =( NAMED_UNIT ( * ) SI_UNIT ( $, .STERADIAN. ) SOLID_ANGLE_UNIT ( ) );
#6 = VERTEX_POINT ( 'NONE', #207 ) ;
#7 = AXIS2_PLACEMENT_3D ( 'NONE', #348, #30, #334 ) ;
#8 = VERTEX_POINT ( 'NONE', #172 ) ;
#9 = AXIS2_PLACEMENT_3D ( 'NONE', #366, #36, #368 ) ;
#10 = EDGE_LOOP ( 'NONE', ( #457, #47, #195, #341 ) ) ;
#11 = ORIENTED_EDGE ( 'NONE', *, *, #372, .F. ) ;
#12 = ORIENTED_EDGE ( 'NONE', *, *, #293, .F. ) ;
#13 = CIRCLE ( 'NONE', #208, 8.000000000000000000 ) ;
#14 = CARTESIAN_POINT ( 'NONE',  ( 1.000000000000000000, 4.869212643809382790, -4.898979485566357539 ) ) ;
#15 = CARTESIAN_POINT ( 'NONE',  ( 0.000000000000000000, -1.000000000000000000, 0.000000000000000000 ) ) ;
#16 = AXIS2_PLACEMENT_3D ( 'NONE', #299, #140, #103 ) ;
#17 = DIRECTION ( 'NONE',  ( 0.000000000000000000, 0.000000000000000000, 1.000000000000000000 ) ) ;
#18 = EDGE_CURVE ( 'NONE', #455, #253, #459, .T. ) ;
#19 = VERTEX_POINT ( 'NONE', #355 ) ;
#20 = CARTESIAN_POINT ( 'NONE',  ( 7.347880794884119736E-16, -1.000000000000000000, 6.000000000000000000 ) ) ;
#21 = EDGE_CURVE ( 'NONE', #219, #192, #384, .T. ) ;
#22 = CARTESIAN_POINT ( 'NONE',  ( -0.5043331331710164678, 5.873271419142301220, -4.975960935392957474 ) ) ;
#23 = FACE_OUTER_BOUND ( 'NONE', #448, .T. ) ;
#24 =( NAMED_UNIT ( * ) SI_UNIT ( $, .STERADIAN. ) SOLID_ANGLE_UNIT ( ) );
#25 = CARTESIAN_POINT ( 'NONE',  ( 9.797174393178825657E-16, -1.000000000000000000, 8.000000000000000000 ) ) ;
#26 = PRESENTATION_LAYER_ASSIGNMENT (  '', '', ( #359 ) ) ;
#27 = ORIENTED_EDGE ( 'NONE', *, *, #18, .F. ) ;
#28 = CARTESIAN_POINT ( 'NONE',  ( -1.000000000000000000, 4.867922810619444540, -4.898979485566356651 ) ) ;
#29 = DIRECTION ( 'NONE',  ( -1.000000000000000000, -0.000000000000000000, -0.000000000000000000 ) ) ;
#30 = DIRECTION ( 'NONE',  ( 0.000000000000000000, -1.000000000000000000, 0.000000000000000000 ) ) ;
#31 = EDGE_CURVE ( 'NONE', #223, #157, #13, .T. ) ;
#32 = CARTESIAN_POINT ( 'NONE',  ( 0.000000000000000000, 0.000000000000000000, 0.000000000000000000 ) ) ;
#33 = CARTESIAN_POINT ( 'NONE',  ( 0.000000000000000000, -1.000000000000000000, -8.000000000000000000 ) ) ;
#34 =( NAMED_UNIT ( * ) PLANE_ANGLE_UNIT ( ) SI_UNIT ( $, .RADIAN. ) );
#35 = DIRECTION ( 'NONE',  ( 0.000000000000000000, 0.000000000000000000, 1.000000000000000000 ) ) ;
#36 = DIRECTION ( 'NONE',  ( -0.000000000000000000, 1.000000000000000000, -0.000000000000000000 ) ) ;
#37 = MECHANICAL_DESIGN_GEOMETRIC_PRESENTATION_REPRESENTATION (  '', ( #359 ), #153 ) ;
#38 = CIRCLE ( 'NONE', #154, 6.000000000000000000 ) ;
#39 = ORIENTED_EDGE ( 'NONE', *, *, #205, .F. ) ;
#40 = ADVANCED_FACE ( 'NONE', ( #319 ), #241, .F. ) ;
#41 = EDGE_LOOP ( 'NONE', ( #452, #377, #237, #405 ) ) ;
#42 = ORIENTED_EDGE ( 'NONE', *, *, #350, .F. ) ;
#43 = MECHANICAL_DESIGN_GEOMETRIC_PRESENTATION_REPRESENTATION (  '', ( #255 ), #307 ) ;
#44 = EDGE_LOOP ( 'NONE', ( #113, #386, #421, #290, #273, #152 ) ) ;
#45 = ORIENTED_EDGE ( 'NONE', *, *, #46, .T. ) ;
#46 = EDGE_CURVE ( 'NONE', #275, #6, #312, .T. ) ;
#47 = ORIENTED_EDGE ( 'NONE', *, *, #161, .F. ) ;
#48 = CIRCLE ( 'NONE', #160, 2.000000000000000000 ) ;
#49 = DIRECTION ( 'NONE',  ( 0.000000000000000000, 0.000000000000000000, -1.000000000000000000 ) ) ;
#50 = EDGE_CURVE ( 'NONE', #271, #342, #139, .T. ) ;
#51 = DIRECTION ( 'NONE',  ( 0.000000000000000000, 0.000000000000000000, -1.000000000000000000 ) ) ;
#52 = DIRECTION ( 'NONE',  ( 0.000000000000000000, 0.000000000000000000, -1.000000000000000000 ) ) ;
#53 = CARTESIAN_POINT ( 'NONE',  ( 7.403930650478834893E-13, 3.999999999993380406, 5.000000000001324274 ) ) ;
#54 = DIRECTION ( 'NONE',  ( -0.000000000000000000, -1.000000000000000000, -0.000000000000000000 ) ) ;
#55 = AXIS2_PLACEMENT_3D ( 'NONE', #392, #347, #17 ) ;
#56 = CARTESIAN_POINT ( 'NONE',  ( 9.797174393178825657E-16, -3.000000000000000000, -8.000000000000000000 ) ) ;
#57 = DIRECTION ( 'NONE',  ( 0.000000000000000000, 0.000000000000000000, -1.000000000000000000 ) ) ;
#58 = CARTESIAN_POINT ( 'NONE',  ( -0.5034815937576283540, 4.126215143186867884, -4.976051843389410756 ) ) ;
#59 = CARTESIAN_POINT ( 'NONE',  ( 0.000000000000000000, 6.000000000000000000, 3.000000000000000000 ) ) ;
#60 = CARTESIAN_POINT ( 'NONE',  ( 1.000000000000000222, 4.869321815288607525, 4.898979485566355763 ) ) ;
#61 = B_SPLINE_CURVE_WITH_KNOTS ( 'NONE', 3,
 ( #430, #356, #97, #58, #360, #175, #475, #322, #28, #179 ),
 .UNSPECIFIED., .F., .F.,
 ( 4, 2, 2, 2, 4 ),
 ( 0.003134371591889375131, 0.003526190702374740627, 0.003918009812860106557, 0.004309828923345472053, 0.004701648033830837549 ),
 .UNSPECIFIED. ) ;
#62 = CARTESIAN_POINT ( 'NONE',  ( 0.2625713592292799325, 5.973776389239759510, -4.994576880341376146 ) ) ;
#63 = CARTESIAN_POINT ( 'NONE',  ( -1.000000000000000222, 5.132429757887607913, 4.898979485566355763 ) ) ;
#64 = CARTESIAN_POINT ( 'NONE',  ( 0.9738653796727984036, 4.737889156945565894, 4.904506619387738908 ) ) ;
#65 = TOROIDAL_SURFACE ( 'NONE', #337, 6.000000000000000000, 2.000000000000000000 ) ;
#66 = PRESENTATION_STYLE_ASSIGNMENT (( #434 ) ) ;
#67 = AXIS2_PLACEMENT_3D ( 'NONE', #105, #256, #401 ) ;
#68 = LINE ( 'NONE', #56, #282 ) ;
#69 = CARTESIAN_POINT ( 'NONE',  ( -0.7987602494591091729, 5.615520645085033458, 4.936659025935345113 ) ) ;
#70 = CARTESIAN_POINT ( 'NONE',  ( 1.000000000000000000, 5.130717549293992263, 4.898979485566358427 ) ) ;
#71 = CARTESIAN_POINT ( 'NONE',  ( -0.9733018203259331536, 5.263886424025554511, 4.904617509361894001 ) ) ;
#72 = DIRECTION ( 'NONE',  ( -0.000000000000000000, -1.000000000000000000, -0.000000000000000000 ) ) ;
#73 = ORIENTED_EDGE ( 'NONE', *, *, #193, .F. ) ;
#74 = CARTESIAN_POINT ( 'NONE',  ( 0.000000000000000000, -1.000000000000000000, -6.000000000000000000 ) ) ;
#75 = ADVANCED_FACE ( 'NONE', ( #169 ), #414, .T. ) ;
#76 = VECTOR ( 'NONE', #351, 1000.000000000000000 ) ;
#77 = EDGE_LOOP ( 'NONE', ( #100, #412, #250, #199, #343, #235 ) ) ;
#78 = ORIENTED_EDGE ( 'NONE', *, *, #141, .T. ) ;
#79 = ORIENTED_EDGE ( 'NONE', *, *, #410, .F. ) ;
#80 = AXIS2_PLACEMENT_3D ( 'NONE', #216, #135, #396 ) ;
#81 = ORIENTED_EDGE ( 'NONE', *, *, #450, .F. ) ;
#82 = VECTOR ( 'NONE', #436, 1000.000000000000000 ) ;
#83 = ADVANCED_FACE ( 'NONE', ( #462 ), #433, .T. ) ;
#84 = ORIENTED_EDGE ( 'NONE', *, *, #191, .T. ) ;
#85 = DIRECTION ( 'NONE',  ( 0.000000000000000000, -0.000000000000000000, 1.000000000000000000 ) ) ;
#86 = EDGE_CURVE ( 'NONE', #128, #19, #244, .T. ) ;
#87 = CARTESIAN_POINT ( 'NONE',  ( 0.000000000000000000, 6.000000000000000000, 0.000000000000000000 ) ) ;
#88 = EDGE_LOOP ( 'NONE', ( #373, #262 ) ) ;
#89 = DIRECTION ( 'NONE',  ( 0.000000000000000000, 1.000000000000000000, 0.000000000000000000 ) ) ;
#90 =( LENGTH_UNIT ( ) NAMED_UNIT ( * ) SI_UNIT ( .MILLI., .METRE. ) );
#91 = CARTESIAN_POINT ( 'NONE',  ( 0.000000000000000000, 8.000000000000000000, 0.000000000000000000 ) ) ;
#92 = CARTESIAN_POINT ( 'NONE',  ( 0.6154399751292263243, 5.798855630572441022, -4.962848702222550479 ) ) ;
#93 = PRODUCT_DEFINITION_FORMATION_WITH_SPECIFIED_SOURCE ( 'ANY', '', #456, .NOT_KNOWN. ) ;
#94 = CARTESIAN_POINT ( 'NONE',  ( -0.9737535524039512280, 5.262471078062056051, -4.904528713569476395 ) ) ;
#95 = DIRECTION ( 'NONE',  ( -0.000000000000000000, -1.000000000000000000, -0.000000000000000000 ) ) ;
#96 = AXIS2_PLACEMENT_3D ( 'NONE', #171, #248, #478 ) ;
#97 = CARTESIAN_POINT ( 'NONE',  ( -0.2626492715717829163, 4.026342436278811832, -4.994557139876836693 ) ) ;
#98 = B_SPLINE_CURVE_WITH_KNOTS ( 'NONE', 3,
 ( #345, #14, #164, #278, #470, #472, #297, #443, #150, #432 ),
 .UNSPECIFIED., .F., .F.,
 ( 4, 2, 2, 2, 4 ),
 ( 0.001567577648162173142, 0.001959276134093973585, 0.002350974620025774245, 0.002742673105957574471, 0.003134371591889375131 ),
 .UNSPECIFIED. ) ;
#99 = DIRECTION ( 'NONE',  ( 0.000000000000000000, 0.000000000000000000, -1.000000000000000000 ) ) ;
#100 = ORIENTED_EDGE ( 'NONE', *, *, #193, .T. ) ;
#101 = CARTESIAN_POINT ( 'NONE',  ( -1.000000000000000000, 5.000000000000000000, -4.898979485566355763 ) ) ;
#102 = EDGE_LOOP ( 'NONE', ( #187, #287, #158, #451 ) ) ;
#103 = DIRECTION ( 'NONE',  ( 0.000000000000000000, 0.000000000000000000, 1.000000000000000000 ) ) ;
#104 = ADVANCED_FACE ( 'NONE', ( #239 ), #444, .T. ) ;
#105 = CARTESIAN_POINT ( 'NONE',  ( 0.000000000000000000, -3.000000000000000000, 0.000000000000000000 ) ) ;
#106 = DIRECTION ( 'NONE',  ( 0.000000000000000000, 0.000000000000000000, 1.000000000000000000 ) ) ;
#107 = PRESENTATION_LAYER_ASSIGNMENT (  '', '', ( #255 ) ) ;
#108 = CARTESIAN_POINT ( 'NONE',  ( 1.000000000000000000, 5.000000000000000000, 4.898979485566356651 ) ) ;
#109 = CYLINDRICAL_SURFACE ( 'NONE', #228, 8.000000000000000000 ) ;
#110 = DIRECTION ( 'NONE',  ( 0.000000000000000000, 0.000000000000000000, -1.000000000000000000 ) ) ;
#111 = CARTESIAN_POINT ( 'NONE',  ( 0.000000000000000000, 6.000000000000000000, -5.000000000000000000 ) ) ;
#112 = CARTESIAN_POINT ( 'NONE',  ( 0.8002221483936085011, 4.386066408109855708, 4.936441060476206566 ) ) ;
#113 = ORIENTED_EDGE ( 'NONE', *, *, #86, .F. ) ;
#114 = CIRCLE ( 'NONE', #423, 2.000000000000000000 ) ;
#115 = UNCERTAINTY_MEASURE_WITH_UNIT (LENGTH_MEASURE( 1.000000000000000082E-05 ), #90, 'distance_accuracy_value', 'NONE');
#116 = ORIENTED_EDGE ( 'NONE', *, *, #270, .T. ) ;
#117 = APPLICATION_PROTOCOL_DEFINITION ( 'draft international standard', 'automotive_design', 1998, #381 ) ;
#118 = ORIENTED_EDGE ( 'NONE', *, *, #18, .T. ) ;
#119 = EDGE_CURVE ( 'NONE', #157, #223, #378, .T. ) ;
#120 = ORIENTED_EDGE ( 'NONE', *, *, #46, .F. ) ;
#121 = EDGE_LOOP ( 'NONE', ( #159, #39, #162, #305 ) ) ;
#122 = ADVANCED_FACE ( 'NONE', ( #283 ), #427, .T. ) ;
#123 = AXIS2_PLACEMENT_3D ( 'NONE', #87, #310, #466 ) ;
#124 = APPLICATION_CONTEXT ( 'automotive_design' ) ;
#125 = CARTESIAN_POINT ( 'NONE',  ( 0.000000000000000000, 8.000000000000000000, 0.000000000000000000 ) ) ;
#126 = DIRECTION ( 'NONE',  ( 0.000000000000000000, 0.000000000000000000, -1.000000000000000000 ) ) ;
#127 = CIRCLE ( 'NONE', #7, 6.000000000000000000 ) ;
#128 = VERTEX_POINT ( 'NONE', #211 ) ;
#129 = CIRCLE ( 'NONE', #403, 5.000000000000000000 ) ;
#130 = FILL_AREA_STYLE_COLOUR ( '', #409 ) ;
#131 = DIRECTION ( 'NONE',  ( 0.000000000000000000, 0.000000000000000000, -1.000000000000000000 ) ) ;
#132 = ADVANCED_FACE ( 'NONE', ( #23 ), #309, .T. ) ;
#133 = CARTESIAN_POINT ( 'NONE',  ( -1.000000000000000000, 5.000000000000000000, -4.898979485566355763 ) ) ;
#134 = DIRECTION ( 'NONE',  ( 0.000000000000000000, 0.000000000000000000, 1.000000000000000000 ) ) ;
#135 = DIRECTION ( 'NONE',  ( -0.000000000000000000, -1.000000000000000000, -0.000000000000000000 ) ) ;
#136 = CARTESIAN_POINT ( 'NONE',  ( -1.000000000000000000, 5.000000000000000000, 4.898979485566356651 ) ) ;
#137 = CARTESIAN_POINT ( 'NONE',  ( 0.000000000000000000, -3.000000000000000000, 0.000000000000000000 ) ) ;
#138 = EDGE_CURVE ( 'NONE', #19, #438, #98, .T. ) ;
#139 = CIRCLE ( 'NONE', #55, 3.000000000000000000 ) ;
#140 = DIRECTION ( 'NONE',  ( 0.000000000000000000, 1.000000000000000000, 0.000000000000000000 ) ) ;
#141 = EDGE_CURVE ( 'NONE', #232, #198, #420, .T. ) ;
#142 = PLANE ( 'NONE',  #259 ) ;
#143 = CARTESIAN_POINT ( 'NONE',  ( 0.000000000000000000, -1.000000000000000000, 0.000000000000000000 ) ) ;
#144 = CARTESIAN_POINT ( 'NONE',  ( -1.000000000000000000, 5.000000000000000000, 4.898979485566356651 ) ) ;
#145 = CARTESIAN_POINT ( 'NONE',  ( -0.5039656107638638138, 5.873560445773238214, 4.976010884909610965 ) ) ;
#146 = FACE_OUTER_BOUND ( 'NONE', #121, .T. ) ;
#147 = DIRECTION ( 'NONE',  ( 0.000000000000000000, -0.000000000000000000, -1.000000000000000000 ) ) ;
#148 = AXIS2_PLACEMENT_3D ( 'NONE', #15, #315, #51 ) ;
#149 = CARTESIAN_POINT ( 'NONE',  ( 0.000000000000000000, 8.000000000000000000, 3.000000000000000000 ) ) ;
#150 = CARTESIAN_POINT ( 'NONE',  ( 0.1306783599100931614, 4.000000000000000000, -4.999999999999999112 ) ) ;
#151 = EDGE_LOOP ( 'NONE', ( #78, #238, #408, #308 ) ) ;
#152 = ORIENTED_EDGE ( 'NONE', *, *, #350, .T. ) ;
#153 =( GEOMETRIC_REPRESENTATION_CONTEXT ( 3 ) GLOBAL_UNCERTAINTY_ASSIGNED_CONTEXT ( ( #115 ) ) GLOBAL_UNIT_ASSIGNED_CONTEXT ( ( #90, #471, #24 ) ) REPRESENTATION_CONTEXT ( 'NONE', 'WORKASPACE' ) );
#154 = AXIS2_PLACEMENT_3D ( 'NONE', #137, #323, #99 ) ;
#155 = PRODUCT_DEFINITION ( 'UNKNOWN', '', #93, #284 ) ;
#156 = DIRECTION ( 'NONE',  ( 1.000000000000000000, 0.000000000000000000, 0.000000000000000000 ) ) ;
#157 = VERTEX_POINT ( 'NONE', #252 ) ;
#158 = ORIENTED_EDGE ( 'NONE', *, *, #168, .T. ) ;
#159 = ORIENTED_EDGE ( 'NONE', *, *, #362, .F. ) ;
#160 = AXIS2_PLACEMENT_3D ( 'NONE', #185, #1, #331 ) ;
#161 = EDGE_CURVE ( 'NONE', #253, #455, #188, .T. ) ;
#162 = ORIENTED_EDGE ( 'NONE', *, *, #203, .T. ) ;
#163 = AXIS2_PLACEMENT_3D ( 'NONE', #165, #204, #131 ) ;
#164 = CARTESIAN_POINT ( 'NONE',  ( 0.9739652463212102873, 4.738044416873059106, -4.904488859853155525 ) ) ;
#165 = CARTESIAN_POINT ( 'NONE',  ( 0.000000000000000000, 0.000000000000000000, 0.000000000000000000 ) ) ;
#166 = AXIS2_PLACEMENT_3D ( 'NONE', #59, #177, #35 ) ;
#167 = FILL_AREA_STYLE ('',( #130 ) ) ;
#168 = EDGE_CURVE ( 'NONE', #232, #223, #402, .T. ) ;
#169 = FACE_OUTER_BOUND ( 'NONE', #380, .T. ) ;
#170 = FACE_OUTER_BOUND ( 'NONE', #229, .T. ) ;
#171 = CARTESIAN_POINT ( 'NONE',  ( 0.000000000000000000, -3.000000000000000000, 0.000000000000000000 ) ) ;
#172 = CARTESIAN_POINT ( 'NONE',  ( 0.000000000000000000, -3.000000000000000000, -6.000000000000000000 ) ) ;
#173 = LINE ( 'NONE', #320, #449 ) ;
#174 = PLANE ( 'NONE',  #96 ) ;
#175 = CARTESIAN_POINT ( 'NONE',  ( -0.7991158358781504933, 4.384844052672780990, -4.936607563108273311 ) ) ;
#176 = B_SPLINE_CURVE_WITH_KNOTS ( 'NONE', 3,
 ( #108, #70, #3, #371, #266, #374, #194, #458, #311, #277 ),
 .UNSPECIFIED., .F., .F.,
 ( 4, 2, 2, 2, 4 ),
 ( 0.003134361323450886305, 0.003526177510218353808, 0.003917993696985821311, 0.004309809883753289682, 0.004701626070520757185 ),
 .UNSPECIFIED. ) ;
#177 = DIRECTION ( 'NONE',  ( -1.000000000000000000, 0.000000000000000000, 0.000000000000000000 ) ) ;
#178 = VERTEX_POINT ( 'NONE', #183 ) ;
#179 = CARTESIAN_POINT ( 'NONE',  ( -1.000000000000000000, 5.000000000000000000, -4.898979485566355763 ) ) ;
#180 = DIRECTION ( 'NONE',  ( -1.000000000000000000, 0.000000000000000000, 0.000000000000000000 ) ) ;
#181 = CARTESIAN_POINT ( 'NONE',  ( 1.036580899944686463E-20, 6.000000000000000000, 5.000000000000000000 ) ) ;
#182 = DIRECTION ( 'NONE',  ( 0.000000000000000000, 1.000000000000000000, 0.000000000000000000 ) ) ;
#183 = CARTESIAN_POINT ( 'NONE',  ( 0.000000000000000000, 0.000000000000000000, -5.000000000000000000 ) ) ;
#184 = ORIENTED_EDGE ( 'NONE', *, *, #467, .T. ) ;
#185 = CARTESIAN_POINT ( 'NONE',  ( 3.673940397442059868E-16, 6.000000000000000000, -3.000000000000000000 ) ) ;
#186 = PRODUCT_RELATED_PRODUCT_CATEGORY ( 'part', '', ( #456 ) ) ;
#187 = ORIENTED_EDGE ( 'NONE', *, *, #264, .F. ) ;
#188 = CIRCLE ( 'NONE', #339, 5.000000000000000000 ) ;
#189 = FILL_AREA_STYLE_COLOUR ( '', #240 ) ;
#190 = ORIENTED_EDGE ( 'NONE', *, *, #340, .T. ) ;
#191 = EDGE_CURVE ( 'NONE', #8, #265, #38, .T. ) ;
#192 = VERTEX_POINT ( 'NONE', #101 ) ;
#193 = EDGE_CURVE ( 'NONE', #275, #128, #215, .T. ) ;
#194 = CARTESIAN_POINT ( 'NONE',  ( 0.5049694910697958283, 5.873089319802103248, 4.975925033583026291 ) ) ;
#195 = ORIENTED_EDGE ( 'NONE', *, *, #325, .T. ) ;
#196 = AXIS2_PLACEMENT_3D ( 'NONE', #143, #257, #110 ) ;
#197 = SURFACE_SIDE_STYLE ('',( #379 ) ) ;
#198 = VERTEX_POINT ( 'NONE', #33 ) ;
#199 = ORIENTED_EDGE ( 'NONE', *, *, #389, .T. ) ;
#200 = ORIENTED_EDGE ( 'NONE', *, *, #161, .T. ) ;
#201 = DIRECTION ( 'NONE',  ( 0.000000000000000000, 1.000000000000000000, 0.000000000000000000 ) ) ;
#202 = VECTOR ( 'NONE', #242, 1000.000000000000000 ) ;
#203 = EDGE_CURVE ( 'NONE', #198, #8, #316, .T. ) ;
#204 = DIRECTION ( 'NONE',  ( 0.000000000000000000, -1.000000000000000000, 0.000000000000000000 ) ) ;
#205 = EDGE_CURVE ( 'NONE', #198, #232, #220, .T. ) ;
#206 = CARTESIAN_POINT ( 'NONE',  ( 0.8738358662234853025, 5.503364561088115003, -4.923310680756467050 ) ) ;
#207 = CARTESIAN_POINT ( 'NONE',  ( 6.123233995736766282E-16, 0.000000000000000000, 5.000000000000000000 ) ) ;
#208 = AXIS2_PLACEMENT_3D ( 'NONE', #276, #461, #49 ) ;
#209 = CARTESIAN_POINT ( 'NONE',  ( 1.000000000000000444, 5.130852775534046728, -4.898979485566357539 ) ) ;
#210 = FACE_OUTER_BOUND ( 'NONE', #102, .T. ) ;
#211 = CARTESIAN_POINT ( 'NONE',  ( 1.000000000000000000, 5.000000000000000000, 4.898979485566356651 ) ) ;
#212 = CARTESIAN_POINT ( 'NONE',  ( 0.5046882602599652712, 5.873197534859156299, -4.975945306399967905 ) ) ;
#213 = EDGE_CURVE ( 'NONE', #253, #219, #279, .T. ) ;
#214 = CARTESIAN_POINT ( 'NONE',  ( 0.000000000000000000, 0.000000000000000000, 8.000000000000000000 ) ) ;
#215 = B_SPLINE_CURVE_WITH_KNOTS ( 'NONE', 3,
 ( #364, #300, #446, #226, #398, #112, #249, #64, #60, #218 ),
 .UNSPECIFIED., .F., .F.,
 ( 4, 2, 2, 2, 4 ),
 ( 0.001567568546081517114, 0.001959266740423859249, 0.002350964934766201601, 0.002742663129108543953, 0.003134361323450886305 ),
 .UNSPECIFIED. ) ;
#216 = CARTESIAN_POINT ( 'NONE',  ( 0.000000000000000000, 8.000000000000000000, 0.000000000000000000 ) ) ;
#217 = FACE_OUTER_BOUND ( 'NONE', #88, .T. ) ;
#218 = CARTESIAN_POINT ( 'NONE',  ( 1.000000000000000000, 5.000000000000000000, 4.898979485566356651 ) ) ;
#219 = VERTEX_POINT ( 'NONE', #136 ) ;
#220 = CIRCLE ( 'NONE', #9, 8.000000000000000000 ) ;
#221 = CARTESIAN_POINT ( 'NONE',  ( -0.8732080439320800691, 4.495332553724375124, 4.923426194171200976 ) ) ;
#222 = DIRECTION ( 'NONE',  ( -0.000000000000000000, 1.000000000000000000, -0.000000000000000000 ) ) ;
#223 = VERTEX_POINT ( 'NONE', #214 ) ;
#224 = ADVANCED_FACE ( 'NONE', ( #246, #217 ), #142, .F. ) ;
#225 = DIRECTION ( 'NONE',  ( 0.000000000000000000, 0.000000000000000000, 1.000000000000000000 ) ) ;
#226 = CARTESIAN_POINT ( 'NONE',  ( 0.5044522751613319533, 4.126639215023898188, 4.975973833268214186 ) ) ;
#227 = ADVANCED_FACE ( 'NONE', ( #391 ), #395, .F. ) ;
#228 = AXIS2_PLACEMENT_3D ( 'NONE', #260, #406, #225 ) ;
#229 = EDGE_LOOP ( 'NONE', ( #120, #79, #416, #200, #12, #375, #418, #184 ) ) ;
#230 = CLOSED_SHELL ( 'NONE', ( #40, #258, #122, #75, #104, #445, #83, #376, #132, #274, #245, #224, #227 ) ) ;
#231 =( NAMED_UNIT ( * ) SI_UNIT ( $, .STERADIAN. ) SOLID_ANGLE_UNIT ( ) );
#232 = VERTEX_POINT ( 'NONE', #25 ) ;
#233 =( NAMED_UNIT ( * ) PLANE_ANGLE_UNIT ( ) SI_UNIT ( $, .RADIAN. ) );
#234 = EDGE_LOOP ( 'NONE', ( #304, #336 ) ) ;
#235 = ORIENTED_EDGE ( 'NONE', *, *, #410, .T. ) ;
#236 = AXIS2_PLACEMENT_3D ( 'NONE', #346, #201, #134 ) ;
#237 = ORIENTED_EDGE ( 'NONE', *, *, #191, .F. ) ;
#238 = ORIENTED_EDGE ( 'NONE', *, *, #264, .T. ) ;
#239 = FACE_OUTER_BOUND ( 'NONE', #41, .T. ) ;
#240 = COLOUR_RGB ( '',0.7921568627450980005, 0.8196078431372548767, 0.9333333333333333481 ) ;
#241 = CYLINDRICAL_SURFACE ( 'NONE', #463, 1.000000000000000000 ) ;
#242 = DIRECTION ( 'NONE',  ( 0.000000000000000000, 0.000000000000000000, -1.000000000000000000 ) ) ;
#243 = CARTESIAN_POINT ( 'NONE',  ( -0.5033857593037062150, 4.126174963928585626, 4.976059276686192412 ) ) ;
#244 = LINE ( 'NONE', #281, #202 ) ;
#245 = ADVANCED_FACE ( 'NONE', ( #318 ), #174, .T. ) ;
#246 = FACE_BOUND ( 'NONE', #234, .T. ) ;
#247 = CARTESIAN_POINT ( 'NONE',  ( 0.000000000000000000, 6.000000000000000000, 0.000000000000000000 ) ) ;
#248 = DIRECTION ( 'NONE',  ( 0.000000000000000000, -1.000000000000000000, 0.000000000000000000 ) ) ;
#249 = CARTESIAN_POINT ( 'NONE',  ( 0.8736606738456974552, 4.496181680813975845, 4.923343983952256586 ) ) ;
#250 = ORIENTED_EDGE ( 'NONE', *, *, #138, .T. ) ;
#251 = CARTESIAN_POINT ( 'NONE',  ( 0.7994049483885253826, 5.614726288665365495, -4.936556019395614392 ) ) ;
#252 = CARTESIAN_POINT ( 'NONE',  ( 9.797174393178825657E-16, 0.000000000000000000, -8.000000000000000000 ) ) ;
#253 = VERTEX_POINT ( 'NONE', #327 ) ;
#254 = CARTESIAN_POINT ( 'NONE',  ( 0.9736200088859119361, 5.262733859171170536, -4.904553115080541481 ) ) ;
#255 = STYLED_ITEM ( 'NONE', ( #411 ), #326 ) ;
#256 = DIRECTION ( 'NONE',  ( -0.000000000000000000, 1.000000000000000000, -0.000000000000000000 ) ) ;
#257 = DIRECTION ( 'NONE',  ( -0.000000000000000000, 1.000000000000000000, -0.000000000000000000 ) ) ;
#258 = ADVANCED_FACE ( 'NONE', ( #476 ), #440, .T. ) ;
#259 = AXIS2_PLACEMENT_3D ( 'NONE', #361, #329, #147 ) ;
#260 = CARTESIAN_POINT ( 'NONE',  ( 0.000000000000000000, -3.000000000000000000, 0.000000000000000000 ) ) ;
#261 = CARTESIAN_POINT ( 'NONE',  ( 0.000000000000000000, 6.000000000000000000, 0.000000000000000000 ) ) ;
#262 = ORIENTED_EDGE ( 'NONE', *, *, #119, .F. ) ;
#263 = ORIENTED_EDGE ( 'NONE', *, *, #344, .F. ) ;
#264 = EDGE_CURVE ( 'NONE', #198, #157, #68, .T. ) ;
#265 = VERTEX_POINT ( 'NONE', #363 ) ;
#266 = CARTESIAN_POINT ( 'NONE',  ( 0.7995262221189807228, 5.614622647170401493, 4.936539978216740288 ) ) ;
#267 = B_SPLINE_CURVE_WITH_KNOTS ( 'NONE', 3,
 ( #144, #291, #439, #221, #314, #464, #243, #317, #387, #53 ),
 .UNSPECIFIED., .F., .F.,
 ( 4, 2, 2, 2, 4 ),
 ( 0.000000000000000000, 0.0003918921365203792786, 0.0007837842730407585572, 0.001175676409561137890, 0.001567568546081517114 ),
 .UNSPECIFIED. ) ;
#268 =( LENGTH_UNIT ( ) NAMED_UNIT ( * ) SI_UNIT ( .MILLI., .METRE. ) );
#269 = ORIENTED_EDGE ( 'NONE', *, *, #325, .F. ) ;
#270 = EDGE_CURVE ( 'NONE', #6, #178, #129, .T. ) ;
#271 = VERTEX_POINT ( 'NONE', #442 ) ;
#272 = SHAPE_DEFINITION_REPRESENTATION ( #453, #326 ) ;
#273 = ORIENTED_EDGE ( 'NONE', *, *, #293, .T. ) ;
#274 = ADVANCED_FACE ( 'NONE', ( #210 ), #109, .T. ) ;
#275 = VERTEX_POINT ( 'NONE', #365 ) ;
#276 = CARTESIAN_POINT ( 'NONE',  ( 0.000000000000000000, 0.000000000000000000, 0.000000000000000000 ) ) ;
#277 = CARTESIAN_POINT ( 'NONE',  ( 1.036580899944686463E-20, 6.000000000000000000, 5.000000000000000000 ) ) ;
#278 = CARTESIAN_POINT ( 'NONE',  ( 0.8733692059481429348, 4.495564415733363184, -4.923397760446209581 ) ) ;
#279 = B_SPLINE_CURVE_WITH_KNOTS ( 'NONE', 3,
 ( #181, #328, #477, #145, #441, #69, #397, #71, #63, #435 ),
 .UNSPECIFIED., .F., .F.,
 ( 4, 2, 2, 2, 4 ),
 ( 0.004701626070520757185, 0.005093196978599371164, 0.005484767886677985142, 0.005876338794756599121, 0.006267909702835213100 ),
 .UNSPECIFIED. ) ;
#280 = CIRCLE ( 'NONE', #166, 2.000000000000000000 ) ;
#281 = CARTESIAN_POINT ( 'NONE',  ( 1.000000000000000000, 5.000000000000000000, 14.00000000000000000 ) ) ;
#282 = VECTOR ( 'NONE', #222, 1000.000000000000000 ) ;
#283 = FACE_OUTER_BOUND ( 'NONE', #306, .T. ) ;
#284 = PRODUCT_DEFINITION_CONTEXT ( 'detailed design', #124, 'design' ) ;
#285 = SURFACE_STYLE_FILL_AREA ( #167 ) ;
#286 = CARTESIAN_POINT ( 'NONE',  ( -1.000000000000000666, 5.131993672207367574, -4.898979485566355763 ) ) ;
#287 = ORIENTED_EDGE ( 'NONE', *, *, #205, .T. ) ;
#288 = CARTESIAN_POINT ( 'NONE',  ( -0.7992297782902810788, 5.614910473117423528, -4.936581699909394771 ) ) ;
#289 = SURFACE_SIDE_STYLE ('',( #285 ) ) ;
#290 = ORIENTED_EDGE ( 'NONE', *, *, #21, .T. ) ;
#291 = CARTESIAN_POINT ( 'NONE',  ( -1.000000000000000000, 4.867461602262261877, 4.898979485566355763 ) ) ;
#292 = DIRECTION ( 'NONE',  ( 0.000000000000000000, 0.000000000000000000, -1.000000000000000000 ) ) ;
#293 = EDGE_CURVE ( 'NONE', #192, #455, #474, .T. ) ;
#294 = DIRECTION ( 'NONE',  ( 0.000000000000000000, -1.000000000000000000, 0.000000000000000000 ) ) ;
#295 = AXIS2_PLACEMENT_3D ( 'NONE', #404, #89, #332 ) ;
#296 = DIRECTION ( 'NONE',  ( 0.000000000000000000, 0.000000000000000000, 1.000000000000000000 ) ) ;
#297 = CARTESIAN_POINT ( 'NONE',  ( 0.5038381628029935388, 4.126349409794129564, -4.976026608285484265 ) ) ;
#298 = CARTESIAN_POINT ( 'NONE',  ( 0.000000000000000000, -1.000000000000000000, 0.000000000000000000 ) ) ;
#299 = CARTESIAN_POINT ( 'NONE',  ( 0.000000000000000000, 8.000000000000000000, 0.000000000000000000 ) ) ;
#300 = CARTESIAN_POINT ( 'NONE',  ( 0.1307909636903669126, 4.000000000000152767, 4.999999999999969802 ) ) ;
#301 = ORIENTED_EDGE ( 'NONE', *, *, #426, .T. ) ;
#302 = DIRECTION ( 'NONE',  ( 0.000000000000000000, 0.000000000000000000, -1.000000000000000000 ) ) ;
#303 = CARTESIAN_POINT ( 'NONE',  ( 0.000000000000000000, 0.000000000000000000, 0.000000000000000000 ) ) ;
#304 = ORIENTED_EDGE ( 'NONE', *, *, #467, .F. ) ;
#305 = ORIENTED_EDGE ( 'NONE', *, *, #426, .F. ) ;
#306 = EDGE_LOOP ( 'NONE', ( #73, #45, #116, #11, #369, #42, #118, #81 ) ) ;
#307 =( GEOMETRIC_REPRESENTATION_CONTEXT ( 3 ) GLOBAL_UNCERTAINTY_ASSIGNED_CONTEXT ( ( #370 ) ) GLOBAL_UNIT_ASSIGNED_CONTEXT ( ( #268, #233, #231 ) ) REPRESENTATION_CONTEXT ( 'NONE', 'WORKASPACE' ) );
#308 = ORIENTED_EDGE ( 'NONE', *, *, #168, .F. ) ;
#309 = PLANE ( 'NONE',  #473 ) ;
#310 = DIRECTION ( 'NONE',  ( 0.000000000000000000, 1.000000000000000000, 0.000000000000000000 ) ) ;
#311 = CARTESIAN_POINT ( 'NONE',  ( 0.1320728470122594089, 6.000000000000000000, 5.000000000000000000 ) ) ;
#312 = LINE ( 'NONE', #385, #76 ) ;
#313 = CIRCLE ( 'NONE', #16, 3.000000000000000000 ) ;
#314 = CARTESIAN_POINT ( 'NONE',  ( -0.7988753337001172072, 4.384586053127903504, 4.936643197252063686 ) ) ;
#315 = DIRECTION ( 'NONE',  ( 0.000000000000000000, -1.000000000000000000, 0.000000000000000000 ) ) ;
#316 = CIRCLE ( 'NONE', #424, 2.000000000000000000 ) ;
#317 = CARTESIAN_POINT ( 'NONE',  ( -0.2627393822365430287, 4.026380241902959511, 4.994550146388205825 ) ) ;
#318 = FACE_OUTER_BOUND ( 'NONE', #419, .T. ) ;
#319 = FACE_OUTER_BOUND ( 'NONE', #77, .T. ) ;
#320 = CARTESIAN_POINT ( 'NONE',  ( 0.000000000000000000, 8.000000000000000000, -5.000000000000000000 ) ) ;
#321 = CARTESIAN_POINT ( 'NONE',  ( -0.2638890872778360541, 5.973302332433538808, -4.994487129764830335 ) ) ;
#322 = CARTESIAN_POINT ( 'NONE',  ( -0.9739313807503640064, 4.737827793217005201, -4.904496828163562583 ) ) ;
#323 = DIRECTION ( 'NONE',  ( 0.000000000000000000, -1.000000000000000000, 0.000000000000000000 ) ) ;
#324 = CARTESIAN_POINT ( 'NONE',  ( 0.000000000000000000, 6.000000000000000000, -5.000000000000000000 ) ) ;
#325 = EDGE_CURVE ( 'NONE', #253, #342, #280, .T. ) ;
#326 = ADVANCED_BREP_SHAPE_REPRESENTATION ( 'epaper-screen-5', ( #349, #383 ), #367 ) ;
#327 = CARTESIAN_POINT ( 'NONE',  ( 1.036580899944686463E-20, 6.000000000000000000, 5.000000000000000000 ) ) ;
#328 = CARTESIAN_POINT ( 'NONE',  ( -0.1319901688181402966, 6.000000000000000888, 4.999999999999999112 ) ) ;
#329 = DIRECTION ( 'NONE',  ( 0.000000000000000000, -1.000000000000000000, 0.000000000000000000 ) ) ;
#330 = CARTESIAN_POINT ( 'NONE',  ( -1.391132540530097688E-22, 4.000000000000000000, -5.000000000000000000 ) ) ;
#331 = DIRECTION ( 'NONE',  ( 1.224646799147353207E-16, 0.000000000000000000, -1.000000000000000000 ) ) ;
#332 = DIRECTION ( 'NONE',  ( 0.000000000000000000, 0.000000000000000000, 1.000000000000000000 ) ) ;
#333 = AXIS2_PLACEMENT_3D ( 'NONE', #247, #95, #388 ) ;
#334 = DIRECTION ( 'NONE',  ( 0.000000000000000000, 0.000000000000000000, -1.000000000000000000 ) ) ;
#335 = APPLICATION_PROTOCOL_DEFINITION ( 'draft international standard', 'automotive_design', 1998, #124 ) ;
#336 = ORIENTED_EDGE ( 'NONE', *, *, #270, .F. ) ;
#337 = AXIS2_PLACEMENT_3D ( 'NONE', #298, #294, #302 ) ;
#338 = ORIENTED_EDGE ( 'NONE', *, *, #344, .T. ) ;
#339 = AXIS2_PLACEMENT_3D ( 'NONE', #261, #72, #358 ) ;
#340 = EDGE_CURVE ( 'NONE', #455, #271, #48, .T. ) ;
#341 = ORIENTED_EDGE ( 'NONE', *, *, #50, .F. ) ;
#342 = VERTEX_POINT ( 'NONE', #149 ) ;
#343 = ORIENTED_EDGE ( 'NONE', *, *, #21, .F. ) ;
#344 = EDGE_CURVE ( 'NONE', #342, #271, #313, .T. ) ;
#345 = CARTESIAN_POINT ( 'NONE',  ( 1.000000000000000000, 5.000000000000000000, -4.898979485566356651 ) ) ;
#346 = CARTESIAN_POINT ( 'NONE',  ( 0.000000000000000000, 6.000000000000000000, 0.000000000000000000 ) ) ;
#347 = DIRECTION ( 'NONE',  ( 0.000000000000000000, 1.000000000000000000, 0.000000000000000000 ) ) ;
#348 = CARTESIAN_POINT ( 'NONE',  ( 0.000000000000000000, -3.000000000000000000, 0.000000000000000000 ) ) ;
#349 = MANIFOLD_SOLID_BREP ( '¶ê¨¤2', #230 ) ;
#350 = EDGE_CURVE ( 'NONE', #455, #19, #413, .T. ) ;
#351 = DIRECTION ( 'NONE',  ( -0.000000000000000000, -1.000000000000000000, -0.000000000000000000 ) ) ;
#352 = AXIS2_PLACEMENT_3D ( 'NONE', #357, #292, #180 ) ;
#353 = CARTESIAN_POINT ( 'NONE',  ( 0.1325375526366767698, 6.000000000000000000, -5.000000000000000000 ) ) ;
#354 = CARTESIAN_POINT ( 'NONE',  ( -0.6155470205416611051, 5.798739628388193346, -4.962832758001074929 ) ) ;
#355 = CARTESIAN_POINT ( 'NONE',  ( 1.000000000000000000, 5.000000000000000000, -4.898979485566356651 ) ) ;
#356 = CARTESIAN_POINT ( 'NONE',  ( -0.1307186026462559547, 4.000000000000000000, -5.000000000000000000 ) ) ;
#357 = CARTESIAN_POINT ( 'NONE',  ( 0.000000000000000000, 5.000000000000000000, 14.00000000000000000 ) ) ;
#358 = DIRECTION ( 'NONE',  ( 0.000000000000000000, 0.000000000000000000, 1.000000000000000000 ) ) ;
#359 = STYLED_ITEM ( 'NONE', ( #66 ), #349 ) ;
#360 = CARTESIAN_POINT ( 'NONE',  ( -0.6146506194447035609, 4.200495419212918691, -4.962951235636443137 ) ) ;
#361 = CARTESIAN_POINT ( 'NONE',  ( 0.000000000000000000, 0.000000000000000000, 0.000000000000000000 ) ) ;
#362 = EDGE_CURVE ( 'NONE', #232, #265, #114, .T. ) ;
#363 = CARTESIAN_POINT ( 'NONE',  ( 8.572527594031473190E-16, -3.000000000000000000, 6.000000000000000000 ) ) ;
#364 = CARTESIAN_POINT ( 'NONE',  ( 7.403930650478834893E-13, 3.999999999993380406, 5.000000000001324274 ) ) ;
#365 = CARTESIAN_POINT ( 'NONE',  ( 7.403930650478834893E-13, 3.999999999993380406, 5.000000000001324274 ) ) ;
#366 = CARTESIAN_POINT ( 'NONE',  ( 0.000000000000000000, -1.000000000000000000, 0.000000000000000000 ) ) ;
#367 =( GEOMETRIC_REPRESENTATION_CONTEXT ( 3 ) GLOBAL_UNCERTAINTY_ASSIGNED_CONTEXT ( ( #4 ) ) GLOBAL_UNIT_ASSIGNED_CONTEXT ( ( #437, #34, #5 ) ) REPRESENTATION_CONTEXT ( 'NONE', 'WORKASPACE' ) );
#368 = DIRECTION ( 'NONE',  ( 0.000000000000000000, 0.000000000000000000, -1.000000000000000000 ) ) ;
#369 = ORIENTED_EDGE ( 'NONE', *, *, #138, .F. ) ;
#370 = UNCERTAINTY_MEASURE_WITH_UNIT (LENGTH_MEASURE( 1.000000000000000082E-05 ), #268, 'distance_accuracy_value', 'NONE');
#371 = CARTESIAN_POINT ( 'NONE',  ( 0.8737939541511364760, 5.503463985695428384, 4.923318539945431560 ) ) ;
#372 = EDGE_CURVE ( 'NONE', #438, #178, #173, .T. ) ;
#373 = ORIENTED_EDGE ( 'NONE', *, *, #31, .F. ) ;
#374 = CARTESIAN_POINT ( 'NONE',  ( 0.6151827147962186659, 5.799095367078646035, 4.962884177955793952 ) ) ;
#375 = ORIENTED_EDGE ( 'NONE', *, *, #389, .F. ) ;
#376 = ADVANCED_FACE ( 'NONE', ( #170 ), #468, .T. ) ;
#377 = ORIENTED_EDGE ( 'NONE', *, *, #362, .T. ) ;
#378 = CIRCLE ( 'NONE', #163, 8.000000000000000000 ) ;
#379 = SURFACE_STYLE_FILL_AREA ( #415 ) ;
#380 = EDGE_LOOP ( 'NONE', ( #27, #190, #263, #269 ) ) ;
#381 = APPLICATION_CONTEXT ( 'automotive_design' ) ;
#382 = ORIENTED_EDGE ( 'NONE', *, *, #50, .T. ) ;
#383 = AXIS2_PLACEMENT_3D ( 'NONE', #303, #417, #156 ) ;
#384 = LINE ( 'NONE', #429, #2 ) ;
#385 = CARTESIAN_POINT ( 'NONE',  ( 6.123233995736766282E-16, 8.000000000000000000, 5.000000000000000000 ) ) ;
#386 = ORIENTED_EDGE ( 'NONE', *, *, #450, .T. ) ;
#387 = CARTESIAN_POINT ( 'NONE',  ( -0.1308557224352877024, 3.999999999999847233, 5.000000000000030198 ) ) ;
#388 = DIRECTION ( 'NONE',  ( 0.000000000000000000, 0.000000000000000000, 1.000000000000000000 ) ) ;
#389 = EDGE_CURVE ( 'NONE', #438, #192, #61, .T. ) ;
#390 = CARTESIAN_POINT ( 'NONE',  ( 1.000000000000000000, 5.000000000000000000, -4.898979485566356651 ) ) ;
#391 = FACE_OUTER_BOUND ( 'NONE', #44, .T. ) ;
#392 = CARTESIAN_POINT ( 'NONE',  ( 0.000000000000000000, 8.000000000000000000, 0.000000000000000000 ) ) ;
#393 = AXIS2_PLACEMENT_3D ( 'NONE', #91, #54, #57 ) ;
#394 = DIRECTION ( 'NONE',  ( 1.000000000000000000, 0.000000000000000000, -1.224646799147353207E-16 ) ) ;
#395 = CYLINDRICAL_SURFACE ( 'NONE', #352, 1.000000000000000000 ) ;
#396 = DIRECTION ( 'NONE',  ( 0.000000000000000000, 0.000000000000000000, -1.000000000000000000 ) ) ;
#397 = CARTESIAN_POINT ( 'NONE',  ( -0.8732807563709082954, 5.504314583159187535, 4.923410410187362807 ) ) ;
#398 = CARTESIAN_POINT ( 'NONE',  ( 0.6144308216887233165, 4.200159573796286239, 4.962991093654515851 ) ) ;
#399 = CIRCLE ( 'NONE', #295, 5.000000000000000000 ) ;
#400 = DIRECTION ( 'NONE',  ( -1.224646799147352961E-16, 0.000000000000000000, -1.000000000000000000 ) ) ;
#401 = DIRECTION ( 'NONE',  ( 0.000000000000000000, 0.000000000000000000, 1.000000000000000000 ) ) ;
#402 = LINE ( 'NONE', #407, #82 ) ;
#403 = AXIS2_PLACEMENT_3D ( 'NONE', #32, #182, #296 ) ;
#404 = CARTESIAN_POINT ( 'NONE',  ( 0.000000000000000000, 0.000000000000000000, 0.000000000000000000 ) ) ;
#405 = ORIENTED_EDGE ( 'NONE', *, *, #203, .F. ) ;
#406 = DIRECTION ( 'NONE',  ( -0.000000000000000000, 1.000000000000000000, -0.000000000000000000 ) ) ;
#407 = CARTESIAN_POINT ( 'NONE',  ( 0.000000000000000000, -3.000000000000000000, 8.000000000000000000 ) ) ;
#408 = ORIENTED_EDGE ( 'NONE', *, *, #119, .T. ) ;
#409 = COLOUR_RGB ( '',0.7921568627450980005, 0.8196078431372548767, 0.9333333333333333481 ) ;
#410 = EDGE_CURVE ( 'NONE', #219, #275, #267, .T. ) ;
#411 = PRESENTATION_STYLE_ASSIGNMENT (( #447 ) ) ;
#412 = ORIENTED_EDGE ( 'NONE', *, *, #86, .T. ) ;
#413 = B_SPLINE_CURVE_WITH_KNOTS ( 'NONE', 3,
 ( #324, #353, #62, #212, #92, #251, #206, #254, #209, #390 ),
 .UNSPECIFIED., .F., .F.,
 ( 4, 2, 2, 2, 4 ),
 ( 0.000000000000000000, 0.0003918944120405431228, 0.0007837888240810863541, 0.001175683236121629694, 0.001567577648162173142 ),
 .UNSPECIFIED. ) ;
#414 = TOROIDAL_SURFACE ( 'NONE', #123, 3.000000000000000000, 2.000000000000000000 ) ;
#415 = FILL_AREA_STYLE ('',( #189 ) ) ;
#416 = ORIENTED_EDGE ( 'NONE', *, *, #213, .F. ) ;
#417 = DIRECTION ( 'NONE',  ( 0.000000000000000000, 0.000000000000000000, 1.000000000000000000 ) ) ;
#418 = ORIENTED_EDGE ( 'NONE', *, *, #372, .T. ) ;
#419 = EDGE_LOOP ( 'NONE', ( #84, #301 ) ) ;
#420 = CIRCLE ( 'NONE', #196, 8.000000000000000000 ) ;
#421 = ORIENTED_EDGE ( 'NONE', *, *, #213, .T. ) ;
#422 = DIRECTION ( 'NONE',  ( 0.000000000000000000, 1.000000000000000000, 0.000000000000000000 ) ) ;
#423 = AXIS2_PLACEMENT_3D ( 'NONE', #20, #394, #400 ) ;
#424 = AXIS2_PLACEMENT_3D ( 'NONE', #74, #29, #106 ) ;
#425 = DIRECTION ( 'NONE',  ( -0.000000000000000000, -1.000000000000000000, -0.000000000000000000 ) ) ;
#426 = EDGE_CURVE ( 'NONE', #265, #8, #127, .T. ) ;
#427 = CYLINDRICAL_SURFACE ( 'NONE', #393, 5.000000000000000000 ) ;
#428 = CARTESIAN_POINT ( 'NONE',  ( -0.8735691692345490811, 5.503948364618073796, -4.923360111713302345 ) ) ;
#429 = CARTESIAN_POINT ( 'NONE',  ( -1.000000000000000000, 5.000000000000000000, 14.00000000000000000 ) ) ;
#430 = CARTESIAN_POINT ( 'NONE',  ( -1.391132540530097688E-22, 4.000000000000000000, -5.000000000000000000 ) ) ;
#431 = CARTESIAN_POINT ( 'NONE',  ( 0.000000000000000000, 6.000000000000000000, -5.000000000000000000 ) ) ;
#432 = CARTESIAN_POINT ( 'NONE',  ( -1.391132540530097688E-22, 4.000000000000000000, -5.000000000000000000 ) ) ;
#433 = TOROIDAL_SURFACE ( 'NONE', #236, 3.000000000000000000, 2.000000000000000000 ) ;
#434 = SURFACE_STYLE_USAGE ( .BOTH. , #289 ) ;
#435 = CARTESIAN_POINT ( 'NONE',  ( -1.000000000000000000, 5.000000000000000000, 4.898979485566356651 ) ) ;
#436 = DIRECTION ( 'NONE',  ( -0.000000000000000000, 1.000000000000000000, -0.000000000000000000 ) ) ;
#437 =( LENGTH_UNIT ( ) NAMED_UNIT ( * ) SI_UNIT ( .MILLI., .METRE. ) );
#438 = VERTEX_POINT ( 'NONE', #330 ) ;
#439 = CARTESIAN_POINT ( 'NONE',  ( -0.9737759491809723222, 4.737432065714895835, 4.904526294988692747 ) ) ;
#440 = CYLINDRICAL_SURFACE ( 'NONE', #67, 8.000000000000000000 ) ;
#441 = CARTESIAN_POINT ( 'NONE',  ( -0.6149342937435087197, 5.799211746047344462, 4.962910042388745779 ) ) ;
#442 = CARTESIAN_POINT ( 'NONE',  ( 4.898587196589412829E-16, 8.000000000000000000, -3.000000000000000000 ) ) ;
#443 = CARTESIAN_POINT ( 'NONE',  ( 0.2621152223558143035, 4.026134578972472511, -4.994596010777168971 ) ) ;
#444 = TOROIDAL_SURFACE ( 'NONE', #148, 6.000000000000000000, 2.000000000000000000 ) ;
#445 = ADVANCED_FACE ( 'NONE', ( #146 ), #65, .T. ) ;
#446 = CARTESIAN_POINT ( 'NONE',  ( 0.2619583445712554970, 4.026034402887350261, 4.994613650022883711 ) ) ;
#447 = SURFACE_STYLE_USAGE ( .BOTH. , #197 ) ;
#448 = EDGE_LOOP ( 'NONE', ( #338, #382 ) ) ;
#449 = VECTOR ( 'NONE', #425, 1000.000000000000000 ) ;
#450 = EDGE_CURVE ( 'NONE', #128, #253, #176, .T. ) ;
#451 = ORIENTED_EDGE ( 'NONE', *, *, #31, .T. ) ;
#452 = ORIENTED_EDGE ( 'NONE', *, *, #141, .F. ) ;
#453 = PRODUCT_DEFINITION_SHAPE ( 'NONE', 'NONE',  #155 ) ;
#454 = PRODUCT_CONTEXT ( 'NONE', #381, 'mechanical' ) ;
#455 = VERTEX_POINT ( 'NONE', #111 ) ;
#456 = PRODUCT ( 'epaper-screen-5', 'epaper-screen-5', '', ( #454 ) ) ;
#457 = ORIENTED_EDGE ( 'NONE', *, *, #340, .F. ) ;
#458 = CARTESIAN_POINT ( 'NONE',  ( 0.2621783510367135528, 5.973931034268574969, 4.994605754110850171 ) ) ;
#459 = CIRCLE ( 'NONE', #333, 5.000000000000000000 ) ;
#460 = CARTESIAN_POINT ( 'NONE',  ( 0.000000000000000000, 5.000000000000000000, 14.00000000000000000 ) ) ;
#461 = DIRECTION ( 'NONE',  ( 0.000000000000000000, -1.000000000000000000, 0.000000000000000000 ) ) ;
#462 = FACE_OUTER_BOUND ( 'NONE', #10, .T. ) ;
#463 = AXIS2_PLACEMENT_3D ( 'NONE', #460, #126, #465 ) ;
#464 = CARTESIAN_POINT ( 'NONE',  ( -0.6147553598406887421, 4.200617755797446229, 4.962934988826337879 ) ) ;
#465 = DIRECTION ( 'NONE',  ( -1.000000000000000000, 0.000000000000000000, 0.000000000000000000 ) ) ;
#466 = DIRECTION ( 'NONE',  ( 0.000000000000000000, 0.000000000000000000, 1.000000000000000000 ) ) ;
#467 = EDGE_CURVE ( 'NONE', #178, #6, #399, .T. ) ;
#468 = CYLINDRICAL_SURFACE ( 'NONE', #80, 5.000000000000000000 ) ;
#469 = CARTESIAN_POINT ( 'NONE',  ( -0.1324282936953534717, 6.000000000000000000, -5.000000000000000000 ) ) ;
#470 = CARTESIAN_POINT ( 'NONE',  ( 0.7998562386128569290, 4.385590601588904569, -4.936501342909804357 ) ) ;
#471 =( NAMED_UNIT ( * ) PLANE_ANGLE_UNIT ( ) SI_UNIT ( $, .RADIAN. ) );
#472 = CARTESIAN_POINT ( 'NONE',  ( 0.6139605722783261221, 4.199799195831782406, -4.963050264372290243 ) ) ;
#473 = AXIS2_PLACEMENT_3D ( 'NONE', #125, #422, #85 ) ;
#474 = B_SPLINE_CURVE_WITH_KNOTS ( 'NONE', 3,
 ( #133, #286, #94, #428, #288, #354, #22, #321, #469, #431 ),
 .UNSPECIFIED., .F., .F.,
 ( 4, 2, 2, 2, 4 ),
 ( 0.004701648033830837549, 0.005093219382952847776, 0.005484790732074857136, 0.005876362081196867364, 0.006267933430318877591 ),
 .UNSPECIFIED. ) ;
#475 = CARTESIAN_POINT ( 'NONE',  ( -0.8731008600877517845, 4.495052984429253939, -4.923446593595872223 ) ) ;
#476 = FACE_OUTER_BOUND ( 'NONE', #151, .T. ) ;
#477 = CARTESIAN_POINT ( 'NONE',  ( -0.2624743020719853548, 5.973753783049882138, 4.994574346660916930 ) ) ;
#478 = DIRECTION ( 'NONE',  ( 0.000000000000000000, -0.000000000000000000, -1.000000000000000000 ) ) ;
ENDSEC;
END-ISO-10303-21;
